<svg version="1" xmlns="http://www.w3.org/2000/svg" width="1800" height="1972" viewBox="0 0 1350 1479"><path d="M786 28l-7 3c-5 3-17 6-22 6-6 0-25 7-41 15-26 13-38 23-48 43l-6 14-5 11c-1 3-2 4-8 5l-19 2c-16 1-24 3-41 11-15 6-21 10-28 16-7 7-10 12-11 21-2 14 3 25 12 27 4 0 6 4 4 9-1 4-5 8-13 10a847 847 0 0 0-96 45c-8 4-46 30-51 35-4 4-11 15-11 17 0 3 1 2 4-3 4-7 11-13 23-19l7-4a1083 1083 0 0 1 149-67l29-10 31-8a572 572 0 0 0 65-19 360 360 0 0 0 24-6l12-2 8-2a1189 1189 0 0 1 55-11l13-2a1072 1072 0 0 0 27-5l28-5c30-5 50-6 62-2 9 3 14 6 20 15 7 9 13 21 17 34a262 262 0 0 1 9 59l4 28a1351 1351 0 0 0 10 99l1 17 3 21v117c-2 19-2 61 0 72a364 364 0 0 1-10 109c1 1 3-1 5-3l5-6c3-3 5-6 6-12 3-7 6-19 6-22l4-11c1-2 1 0 1 8-1 10-2 13-8 30l-4 11 4 9 8-5a215 215 0 0 1 32-21l8-5c8-4 13-5 13-3a589 589 0 0 1-58 43c-11 7-22 10-33 10l-14 2-15 3-15 3-10 2-11 2a450 450 0 0 1-58 7l-29 5c-16 3-27 4-41 5a1039 1039 0 0 0-67 3 1555 1555 0 0 1-272-3 262 262 0 0 1-62-14l-17-7-14-8c-6-4-7-2-2 4 5 4 11 9 20 13l11 6a308 308 0 0 0 40 20c2 3-2 6-17 13-14 6-15 6-23 11-20 11-36 27-39 37v12c2 12 1 14-10 15-6 1-9 0-9-4-1-4-2-4-7-7-6-2-14-3-22-1l6 1c12 1 14 2 18 7 2 3 2 4-3 7l-3 3c1 1 4 2 11 2 17 2 38-1 53-8l6-2 16-6c8-4 26-8 30-8s11 3 25 9c27 14 32 19 32 31 0 7-1 9-3 9-1 0-8-3-15-8-14-8-15-9-22-11-11-5-16-6-22-6-8 1-18 4-22 9-6 6-2 7 11 3 15-6 23-6 31-2l39 26a79 79 0 0 0 28 14c6 2 14 1 22-2 10-4 15-4 17-3 3 3-5 12-15 18-6 4-16 6-34 7-28 3-28 3-40-9-16-15-31-22-47-22-17 0-32 6-32 13 0 3 2 3 9 1l27-5c4 0 11 2 18 5l15 11a100 100 0 0 0 28 18l7 4c6 3 8 5 9 8 1 7-12 11-34 11-12 0-14 0-20-2l-15-5c-13-5-16-8-10-12 2-2 4-2 16-2 11 0 13 0 14-2 1-3-2-4-17-4s-15 0-22 3c-8 3-14 4-19 2-11-6-15-6-24-2-10 4-14 5-29 6-26 1-41-5-46-18-2-7-2-30 0-32v-5c-1 0-6 6-8 11l-3 10c-1 10-4 12-11 9-4-2-14-4-15-3l2 5c4 5 8 8 12 9 6 1 13 3 15 5 1 2 1 2-3 4-6 2-16 2-22-1-5-2-10-7-12-13l-4-19c-1-11 5-26 16-39a191 191 0 0 1 29-27l-4 1c-2 1-11 5-14 5-3 1-6-1-10-10-5-11-8-23-9-38a207 207 0 0 0-4-26 791 791 0 0 0-5-37c0-9 0-10 4-20 6-12 6-12 17-14 10-1 17-4 30-12 15-9 23-15 31-23l10-9 1 4 4 22c2 15 5 23 8 23a1883 1883 0 0 1 1-152 630 630 0 0 1 26-150 1312 1312 0 0 1 14-77c-2 2-8 21-12 34l-3 11c-1 5-7 26-9 41l-3 14c-1 3-3 9-3 14l-6 28a338 338 0 0 0-11 65c-1 16-3 27-5 30-1 1-6 6-13 10a688 688 0 0 0-46 38l-21 17a126 126 0 0 1-24 15l-28 17c0 3 5 1 30-11l28-13c11-6 20-12 30-20a387 387 0 0 1 18-15l7-5c2-3 5-5 6-5 3-4 10-10 11-9l1 26c0 29 0 30-6 36l-14 11-21 16c-17 14-28 18-24 7 2-5 8-9 29-22 14-9 17-13 18-24 2-13 0-15-7-6s-32 31-42 38c-7 4-10 7-10 9l4 7 4 8c0 2-8 9-11 9-2 0-3-1-4-6-3-10-6-14-11-14-2 0-2 0-1 4 2 10 0 21-4 21-1 0-4-4-6-10-5-9-8-14-10-14s-1 3 2 14c3 10 5 21 6 42l2 25a579 579 0 0 0 9 52c-1 0-6-10-9-21l-5-13a223 223 0 0 1-11-53 191 191 0 0 0 20 97c7 13 11 19 22 27l4 4-6 7a128 128 0 0 0-16 19 321 321 0 0 0-16-23 179 179 0 0 1-22-50 941 941 0 0 0-15-57c-3-15-5-23-7-26l-13-13c-2 0-6-8-6-10l2-7c2-4 13-15 22-21l5-3-5-1c-6 0-12 3-20 11-6 6-10 12-10 17 0 3 3 12 6 17l10 12 8 9v17a177 177 0 0 0 14 68l15 34c6 9 13 18 21 26l10 10-1 10c-2 10-2 14 1 22 1 7 3 10 9 17 7 7 10 10 16 13 4 2 6 3 21 3h16l-3 3-33 31-5 7c-14 15-18 24-12 29 2 3 6 4 14 4 6 0 7-2 0-3-10-1-13-9-7-19 3-6 6-10 19-19a210 210 0 0 0 28-24l7-7h6c5 0 10 2 12 4l-8 10c-8 9-11 13-9 14 3 2 9-3 16-13l6-8h26c2 1 3 1 13-3l14-7c12-7 16-8 17-2l-1 7-3 10c-1 4-2 6-6 10-4 6-5 8-2 10 2 2 9-2 15-8 4-5 4-6 4-9-2-10-2-11 0-13l4-2c3 0 35 12 37 14 1 1 1 1-2 3l-11 5c-10 4-10 4-11 7l5 1c6-1 12-4 21-9 3-3 4-3 7-2 10 2 16 2 22 1 17-2 19-3 29-10l7-4c2-1 2-2 1-5-1-9-5-14-12-16l-4-2c1-1 6-2 17-2l19-2c5-1 13-7 19-13 7-7 8-9 7-19-1-6-3-8-11-11h-19c-16 0-26-1-28-4-2-2-1-10 2-15l8-8c4-4 6-5 9-5l42-2h47l5 1h-6l-8 2a728 728 0 0 1-73 12l5 2 11 3 135 3 64 1-1 2-4 8c-6 6-13 16-18 25l-5 8c-2 2-2 2-1 3 2 2 1 8-1 13-2 6-4 7-11 5l-13-2c-5 0-6 0-7 2l-1 3c2 2 35 6 36 4l3-7c4-13 11-23 24-40 13-16 18-21 27-24l31-1 25 1 5-5c13-13 28-20 48-24l18-5c10-3 10-3 25-1 8 1 10 0 11-5l2-8c1-3 2-5 6-7l6-7c4-7 14-15 49-39a969 969 0 0 0 80-61c13-10 17-15 15-18-2-5-5-5-21-4l-15-1s3-4 8-7a1170 1170 0 0 0 21-16c5 0 25 12 27 17 3 5-2 12-15 20l-13 10a705 705 0 0 1-34 30 688 688 0 0 1-64 52c-12 10-19 15-25 16-6 0-3 2 3 2l8 1c7 3 15 17 20 32 3 8 3 25 1 33-2 6-7 15-11 20-3 4-10 7-13 7-4-2-2-6 5-15 9-11 9-13 9-25-1-9-1-10-4-14-2-3-3-5-5-5-3 0-3 0-3 7-1 9-5 13-10 8l-3-1c-2 1-2 1-4 18-2 14-4 19-9 26a171 171 0 0 1-51 34c-3 0-10 4-14 7l-4 4 5 1h14c8 0 10-1 17-5l11-4c1 0 3 3 2 4-4 8-15 24-26 38-15 20-22 32-20 33 1 1 9-5 19-15l11-10-9 23-5 12 5-1h7v4l-4 5c-6 7-11 8-16 3l-4-3c-2 0-5 3-5 6-2 6-8 9-12 6-2-1-1-11 3-16 6-9 6-9 4-10-8-6-14-7-82-7a1139 1139 0 0 1-118-4c-26-4-133-6-136-3-2 2 5 3 28 4a235 235 0 0 1 41 3 501 501 0 0 1 55 6l22 2c13 1 36 1 51-1l29-1c23 0 26 1 38 7 8 4 12 5 30 8 8 1 16 4 16 5 0 3-5 3-36 3-35 0-32 0-36-6-2-5-4-6-7-3-2 2-3 3-3 6l1 4-12-1-20-1c-9 0-10-1-14-7-1-1-1-1-3 1l-5 4a1314 1314 0 0 1-144-5l-54-2-85-2a1041 1041 0 0 1-141-5l11 3c7 2 12 4 25 6l10 2a1183 1183 0 0 0 176 6c2 1 2 21-1 30-3 14-4 17-13 25-7 7-11 14-11 19l3 9c5 10 5 13-3 28l-7 16c0 2 1 3 7 5 5 2 9 5 16 13 5 6 6 10 4 10a340 340 0 0 1-35-16c-4-1-9-5-12-11-3-5-11-12-17-15-16-8-29-9-41-3-13 6-26 21-34 36-2 5-7 11-9 11l-6 3-5 3-2 1c-2 3-7 3-18-1-7-3-9-3-17 2-8 4-13 5-17 3s-12-5-16-5-9 2-14 7l-4 4 3 2c8 4 10 15 4 26-4 10-10 19-12 21-3 3-6 2-14-1l-7-4-3 3c-5 4-9 5-13 2l-8-6c-8-4-17-4-28 0l-12 2c-9 0-11 3-7 11 2 4 5 6 12 6l11 1h21c16-1 19-1 23 4s8 13 8 15l-11 1-29-6-10-1-17-2c-29-6-40-6-71-5H70a334 334 0 0 0 67 13l33 5 8 3 11 2 26 5 25 5c8 0 18 2 21 3 22 5 34 6 63 6l27 2c3 2 15 4 24 5l13 2c21 5 20 5 42 5 21 0 23-1 45-5l15-3 14-3a120 120 0 0 1 45-2c8 0 12 0 12-2s4-10 10-18l4-7 2-2c2-2 2-8 0-15l-4-11c-1-3-2-5-5-7s-5-6-8-10c-6-15-7-20-4-25s19-17 21-16l-4 19-1 6c0 3 1 4 2 5 4 2 6-1 11-13l2-12 3-18 3-11c0-6-8-14-25-24-7-4-10-7-9-11l10-13c11-12 15-17 15-20s-4-9-10-14-6-7-1-17a94 94 0 0 0 8-19c3-7 5-19 5-25 0-7 1-7 15-6l21 3a708 708 0 0 0 77 9l3 1v8c-1 10 1 21 6 34l4 10-5 9c-7 8-9 13-7 18 1 5 5 8 9 8s5 2 3 6c-3 6-7 11-14 15-8 4-11 7-13 15-1 4 0 8 6 21 3 8 3 9-2 28-3 8-3 12-3 26s0 16 2 22c3 8 6 13 13 21 7 7 7 8 5 16-5 16 2 23 9 10 8-12 8-14 0-22-5-6-12-18-15-25a155 155 0 0 1 4-58c1-10 3-12 9-12 5 0 4-1 21 14 6 5 7 8 5 21-2 20-2 20 1 24l8 9 6 8-3 4c-4 4-5 9-4 12v8c-2 3-2 3-1 4a496 496 0 0 0 124-12c18-1 19-1 26-4l17-6a186 186 0 0 0 30-8c6-2 12-5 12-7l-7-1c-14-2-15-2-13-14 2-14 6-24 13-31 6-5 17-12 19-12 2 1 2 8 0 13-4 8-5 16-5 25 0 13 1 15 8 15 10 0 19-3 49-16l7-2a433 433 0 0 0 38-14l19-7a169 169 0 0 1 33-9 2773 2773 0 0 1 51-14c12-3 21-5 43-7 26-2 26-2 25-14 0-6 0-8-3-12a151 151 0 0 0-74-41l-27-1c-18 0-20 0-29 2l-37 13c-16 5-37 19-37 24v2a203 203 0 0 0 24-11l8-3c17-6 37-10 66-13 30-2 43-1 54 3l9 3c16 5 34 18 35 27l-1 5c-4 4-10 1-13-7-2-5-6-8-10-8l-13-3c-14-3-17-2-17 4l2 9c2 7 2 9-2 9l-11 3a126 126 0 0 0-34 10 254 254 0 0 0-17 6l-9 3-8 3-33 13-14 7a636 636 0 0 1-34 14c-4 2-3-1 4-12 7-13 14-21 15-20h12c7-1 18-10 16-11-1-1-14 1-16 3l-7 1-4 1 1-4 2-7 1-6c0-3-2-2-11 3l-12 4c-7 2-8 1-7-11v-12c-2-6-16-19-20-19l-12 5c-9 5-11 6-12 9l-6 10a412 412 0 0 0-14 23l-16 12c-2-1-2-1 2-13l5-14c4-17 8-21 21-22l7-1-2-2c-4-3-13-2-20 1-11 5-16 6-18 5l-8-11c0-2-12-20-16-24a94 94 0 0 0-48-24c-8 0-15 7-18 18-5 13-4 13-18 14-13 1-19 4-26 13l-7 8-9 12c-4 5-9 11-11 11-5 4-15 1-23-5l-3-3c0-2 4-2 6-1 3 2 8 0 11-3 2-2 2-5 3-10 0-7 0-7-2-9-3-3-8-2-12 1-6 3-11 3-9-1 0-2 14-13 18-15l8-3c4-1 5-2 5-3l-2-2c-14-3-23-5-25-4l-8 5c-6 4-10 5-10 3 0-3 6-9 11-12l8-5c5-4 14-6 31-6 21-1 23 0 20 12-2 8-2 12 0 14 3 3 8 3 11-1 4-5 7-10 7-15 0-3-1-4-4-8l-14-9c-5-3-7-5-8-9-1-5-2-33-1-36l39-2a779 779 0 0 1 65 1c5-2 15-10 39-32 23-20 25-21 34-19 8 2 28 2 35 0 8-2 16-6 23-11a385 385 0 0 0 100-135l4-8v-13c0-19-3-33-9-35-4-2-4 1-5 20-1 15-1 19-3 24a180 180 0 0 1-16 31l-11 16-41 55-9 10-9 11c-21 23-36 34-46 34-6 0-5-1 0-5 7-5 10-8 14-15 4-9 6-28 6-57 0-23 1-29 5-37 3-4 5-6 6-5 2 1 1 36 0 48l-4 34c1 2 2 2 4 1 4-1 7-3 13-11a300 300 0 0 1 29-30l30-39c5-7 15-28 19-39 8-21 8-21 9-36v-15l10-9c7-5 19-16 39-36 27-28 36-38 35-40-2-3-11 4-35 25l-10 9-30 29-15 12a868 868 0 0 1-92 59c-2-2-2-6 0-10l9-10c15-14 20-17 44-29l23-15 14-15a264 264 0 0 0-45 23c-20 10-25 13-33 20l-18 13c-3-1-7-8-7-12-1-3-1-4 2-7 3-4 11-9 24-16l19-10c13-8 37-31 49-46a736 736 0 0 1 74-74c-2 0-7 2-19 10l-12 5c-2 1-2 0-3-3 0-4 2-7 10-17 6-6 7-8 5-9-2-2-10 4-17 12-4 5-8 8-9 8l-9-4-24-14-12-6c-8-5-19-13-23-18s-6-11-6-18l3-21c5-9 16-9 32 0 12 5 11 5 24 14a223 223 0 0 0 63 34c13 6 32 10 34 7v-3c-1-2-6-5-16-8l-13-5-13-5-23-11c-16-7-17-9-14-24 2-17 4-25 6-28l10-10 9-10a134 134 0 0 0 11-45l3-29c3-26 3-41 0-60l-3-17c0-5-3-15-7-21-4-8-19-25-27-31l-9-9c-2-6-5-16-8-38l-2-10-4-15-13-30a211 211 0 0 0-85-102 254 254 0 0 0-28-21c-5-3-18-8-24-9h-59c-2-1-2-3-2-8 0-15-3-25-13-39-11-16-14-20-33-34l-17-14a92 92 0 0 0-20-15c-2-1-8-2-11-1zm13 7l2 4c0 3 4 8 10 12 9 6 17 15 30 31 12 14 18 25 18 31 0 5-2 4-8-4-5-7-7-10-12-22-6-11-11-16-14-14l-3 10-3 9 1 13c2 10 2 16 1 24-1 15-2 16-5 3-3-17-6-29-9-30l-2 2c-1 2-1 7 3 27 2 13 2 19-1 21-3 3-9 4-15 3-8-2-25-4-33-4s-14-1-39-5c-17-2-18-2-51-2-34 1-48 2-62 6a61 61 0 0 0-44 31c-5 8-5 9-7 7s-2-11 0-16c3-7 16-17 30-24 8-4 29-11 40-13a258 258 0 0 1 88 4l32 7 14 2c8 0 8 0 12-3l7-4c5-2 5-3 6-17 0-8 0-11-2-17l-2-10c0-2 3-4 10-6l5-3c2-2 2-14 0-17-3-4-9-6-15-7h-5v6c0 7-3 20-5 21l-5 1c-3-1-3 0-3 2v19c-1 12 0 16 5 20l3 3c0 2-32-1-45-5l-9-4c-3-2-3-2-26-3l-23-1c-1-1 1-6 4-12 16-32 27-45 46-54 21-10 24-11 46-11l21-1 6-6c3-6 5-7 8-4zm68 98c2 4 2 7-1 8-2 1-5-4-5-9 0-3 0-4 2-4 1 0 3 2 4 5zm95 25a332 332 0 0 1 115 134c4 8 4 7-21 32-28 28-32 34-29 40 3 5 6 2 21-14a209 209 0 0 0 33-44l3 28v9l-7 7c-13 15-32 33-33 33-3 0 3-7 16-20l14-15c0-2-3-2-7 0-9 4-28 20-30 26-1 3-1 8 1 11 1 2 1 2-2 8-6 9-6 11-2 15 3 3 3 3 3 9-1 7 1 14 3 16l2 2-2 6c-3 6-3 10 0 14l2 5-4 7c-5 8-6 12-4 16 2 3 2 6 2 20-2 29-3 39-5 46-3 6-3 8-3 22 0 18-1 27-4 33s-7 10-8 10c-2-1-2-12 0-31 3-17 4-45 4-69l-3-109a512 512 0 0 0-7-57l-2-18-2-15a1009 1009 0 0 0-28-117l-17-34c-7-10-6-11 1-6zm124 209a571 571 0 0 1 7 59l2 24a681 681 0 0 1 2 108c4 30 7 70 5 72-1 2-2 0-3-11s-3-21-5-25c-4-8-5-13-5-22l-2-21-4 1h-3c-2-3-1-6 2-11 5-9 6-11 6-16l-1-7c-3-4-2-10 1-18l3-9c-1-3-5-3-8 1l-5 4c-2 1-2 1-1-1l4-7c3-5 3-6 3-12v-8l-10 9c-12 12-12 11-2-10 4-8 6-10 7-10 2 1 2 0 3-8 1-13 0-22-1-23-6-3-5-2-5-21 0-24-1-25-11-15-9 9-17 15-17 12l12-15c6-6 7-8 12-16 3-7 10-16 12-15l2 11zm25 12l12 16c3 6 7 16 7 20l1 9 1 8c-2 2-13-12-21-29-2-3-5-19-5-23 0-5 1-5 5-1zm-44 29c-2 5-11 15-18 21-5 4-5 4-2 1l7-11c5-7 14-17 15-16l-2 5zm-52 244l-2 10c-1 1-1-1-1-6l1-10 1-3 1 9zM873 782c2 2-12 14-25 21l-20 14c-14 11-22 13-53 15l-24 2c-30 3-70 4-104 2a1965 1965 0 0 0-130-2c-6-1-6-3-2-11 3-6 7-10 14-15 5-3 6-4 13-4l19 4-4 3c-5 3-6 4-3 6s18 5 26 6l12 2c8 1 44 2 55 0l32-2a1128 1128 0 0 0 123-9c5-1 12-6 22-15 14-11 18-13 30-15l9-2h10zm-402 15l28 4c12 1 14 2 12 6-3 4-5 12-6 18l-2 7-2 2-23-1c-29-2-44-1-72 3l-19 2c-10 1-21 2-25 4s7 3 29 3 22 0 20 2l-26 12-9 3c-14 5-24 8-26 7s-3-14-1-20c3-7 12-15 27-22l10-6 5-1 3-1 5-2 14-5a246 246 0 0 1 22-9l6-2 7-3c4-2 18-3 23-1zm62 57a559 559 0 0 0 100 3l86-1h137l67 1c4 2 4 3 0 8-3 3-4 4-8 4l-8-2c-5-3-17-4-30-2s-14 2-66 0c-59-1-115-1-142 1l-42 6a505 505 0 0 1-66 9c-10 2-38 3-39 3-2-1-2-2-1-10 0-9 0-10-2-12l-3-2c-1 0-3 3-4 7-3 12-12 26-16 26-2 0-10-7-21-18l-9-6-30-11 3-2h35c3 1 4 4 3 6-4 5-4 5 5 0 6-3 14-5 26-7 11-2 15-2 25-1zm501 75c0 3-8 13-13 16-3 2-6 4-7 3v-14c0-2 9-6 14-7s6-1 6 2zm-9 29c-1 4-8 17-12 21l-2 2v-8c1-11 2-15 6-16l6-2c2 0 2 0 1 3zm-60 3l-1 8-2 8-1 10-2 8c0 5-11 22-23 36-5 7-17 17-18 17 0-1 2-5 6-9 20-30 25-40 33-70l4-8c1-3 4-3 4 0zm-435 121c2 0 3 2 3 3 2 9 12 25 16 26 6 2 11-7 9-20v-8h8l10 1c1 1 0 3-5 19a1449 1449 0 0 0-14 34 1621 1621 0 0 0-44-10v-22l1-23h16zm234 14c1 1 2 2 2 13l3 20v8c-2 1-30 4-42 4-5 0-6-3-9-15v-16c1-7 7-13 11-13l35-1zm-250 44c15 3 25 7 25 11 0 3-9 7-18 8-12 2-13 6-2 6 7 0 17 3 21 6l3 5-4 7-5 9-4 3-5 2h-3c-2 0-2 0-2 3s1 7 3 9l2-1h4c1 2 2 2 4 1 4-2 15 6 12 9l-9 5c-11 3-23 3-30 0s-18-12-19-15l3-11 4-18c0-8 0-9-3-12-3-5-5-11-4-16 2-6 10-13 17-13l10 2zm39 13c5 2 8 5 7 7h-11c-4-2-8-6-8-8s7-1 12 1zm309 7l8 5 2 3h-8c-9 0-13 2-18 7-4 3-21 32-23 37-2 6-1 12 4 35 2 10 2 15 1 27-3 18-12 29-26 33-15 4-25 6-29 5-4 0-13-9-16-15-4-7-3-19 2-33 12-31 20-46 32-58 6-6 18-14 20-14l9-8 10-7 10-10c9-8 10-9 14-9l9 2zm10 34l2 2c0 3-6 11-13 18-10 11-14 16-15 23-2 7-5 11-8 9-2-1-3-6-3-11 2-9 19-32 29-39 5-3 5-3 8-2zm-442 3l7 6c8 10 10 12 14 14l8 7c4 3 14 10 16 10l4 3 8 4c16 9 32 24 40 40 3 5 3 6 3 14v9l-4 5c-4 5-12 10-17 12l-12 2c-15 1-24-3-39-17a66 66 0 0 1-23-53c3-24 2-25-2-21-2 3-3 3-6 0-5-3-4-7 2-10 3-1 5-3 5-4 1-3-1-6-4-8-10-6-16-3-41 18-7 6-14 12-16 12-4 2-10 1-11-1-1-4 6-12 22-25 18-15 25-19 36-19 5 0 8 0 10 2zm474 3l5 5c2 3 2 3 1 5l-5 6-7 16-7 12c-3 1-6 0-7-2s0-12 2-19l1-7c2-10 8-18 13-18l4 2zm88 3c4 3 5 7 3 15-3 17-17 35-26 33-2-1-2-1-2-4l5-9c6-9 6-9 6-21-1-11 0-14 4-16 3-1 8 0 10 2zm-286 5l5 7c6 9 13 12 31 13 12 1 13 1 13 3 0 3-4 9-8 11l-14 1-21-1-12-1-3-4c-2-4-3-6-3-13l1-9 4-4c4-4 5-5 7-3zm-126 7c2 2 3 5 1 13-2 13-12 22-35 31-8 3-10 3-15-3-7-6-6-8 7-11 18-5 24-9 31-21l8-11 3 2zm-168 17l6 12 6 11 5 12c0 5 0 6-4 11-6 7-11 10-18 10-4 0-5 0-8-4l-5-9c-3-10-1-12 6-5 5 5 9 5 12 1 1-2 1-4-2-11-3-5-10-13-13-13l-3 3c-3 4-4 6-6 5s-1-5 2-7l4-6c3-4 12-11 15-11l3 1zm-45 14c4 5 10 16 10 18l5 15v11c-3 2-14 4-17 4-3-1-3-1-3-5 2-9 2-12 1-17l-5-13c-3-9-3-11 0-15 3-3 5-2 9 2zm-40 5c2 3 5 16 5 23l4 11 4 9c0 3-6 5-15 6s-9 1-9 3l3 8c8 14 19 44 17 46l-9 1c-10-1-12-2-14-12-3-10-6-14-14-22l-10-11c-2-3-2-3 0-6l16-9 6-4c1-3 3-4 7-6l6-3c3-3 0-11-9-22-5-7-6-10-3-12 3-3 12-3 15 0zm-43-1c2 1 3 5 4 13l6 19 3 10c-1 3-22 12-25 10-1-1-1-5 3-15 3-10 3-13-3-22l-5-9 3-4c3-2 4-3 8-3l6 1zm645 7v4l-5 12c-4 10-5 16-6 33-1 9-3 11-9 13h-16c-3-1-3-1-3-7 0-8 4-18 14-35 11-18 23-28 25-20zm-44 0c6 4 6 9 1 19l-9 20c-2 4-5 19-5 23 0 6-2 8-9 8h-17l-1-4c0-8 8-32 16-47 6-12 15-21 19-21l5 2zm-487 48c5 3 9 10 15 23l10 23c5 10 5 11 2 11-3 2-21 2-24 1s-4-3-9-16a149 149 0 0 0-15-28l-3-6c-4-6-4-9-1-9 10-2 22-2 25 1zm-40 3a173 173 0 0 1 22 53l1 5h-11c-12 0-17-1-18-4l-1-9c-1-9-3-13-9-28l-4-12 2-2c6-5 15-7 18-3zm84 16c6 4 14 11 14 13 0 3-9 2-14-2-3-3-8-11-8-13s4-1 8 2zm-198 7l4 7-6 1c-6-1-9-2-9-4s6-8 7-8l4 4z"/><path d="M743 58c-2 1-6 9-6 12l-1 4-3 9-11 29c-3 8-3 8 4 10 8 2 13 2 15 1l3-9c2-7 6-17 10-23l1-5 1-7 3-10c1-6 1-6-1-8-4-3-12-5-15-3zM1023 252c-3 2-4 6-4 13 0 8 1 11 2 11l5-4c9-8 16-10 20-3l3 3 2 1c-1 1 0 3 1 5l2 3-5 4c-6 4-8 4-5-1 2-1 3-4 3-5 0-6-6-5-16 4-7 6-8 8-4 14 2 2 2 3 0 7-3 11 1 14 10 7 13-10 20-16 21-19 2-4 1-9-1-9l-1-2c2-4-12-23-20-28-5-3-11-4-14-1zM1056 300a156 156 0 0 0-10 9c-9 8-22 20-23 24-3 4-1 7 3 7 6-2 17-11 29-25 7-8 9-12 9-16-1-4-2-4-8 1zM809 1204c-3 1-9 8-14 15a182 182 0 0 0-14 30c-3 5-5 13-5 18 0 7 4 15 12 22 6 6 8 6 14 3 3-3 10-11 10-13l2-4c1-3 2-6 1-15 0-9 0-11-2-17-7-15-7-22-4-33l2-7-2 1zM454 1247c-3 2-2 12 0 22 4 14 14 30 23 37 5 3 6 3 12 3 8 0 13-2 17-7 7-7 3-20-11-34-16-16-36-27-41-21zM911 169c15 16 18 22 25 45 6 20 8 25 10 23 2-1 1-25-1-29l-2-7c-8-21-16-31-31-38-9-4-9-3-1 6zM881 173l4 4c9 6 15 11 24 23l11 13c2 2 3 0 3-4-2-10-6-19-12-24-8-7-28-16-30-12zM831 205a267 267 0 0 0-72 8 248 248 0 0 0-35 7l-12 2-15 4-10 3-7 1-12 4-23 6-11 3a500 500 0 0 0-42 12 695 695 0 0 0-65 23c-37 15-80 38-90 49a217 217 0 0 0-28 70 419 419 0 0 1-8 28l-5 23-3 10-2 9-2 7a255 255 0 0 1-7 32l-2 11-5 48a831 831 0 0 0 2 109c1 13 4 22 11 30 3 4 11 10 16 12a457 457 0 0 0 63 19 576 576 0 0 0 160 12l45-2 82-4 28-3a814 814 0 0 0 60-9c14-3 19-5 32-11 19-8 29-15 35-24a133 133 0 0 0 22-59 421 421 0 0 0 9-78c3-28 4-82 2-100l-4-81a414 414 0 0 0-13-89c-4-16-16-51-20-61-4-8-11-15-17-18-5-3-6-3-17-4l-40 1zm17 21l11 3c7 3 27 25 24 26-1 0-6-3-11-8-14-10-25-15-34-15l-7 1 13 7 33 22c20 14 32 32 34 50 1 5 1 8-1 8l-7-5c-18-16-26-19-14-6 10 12 12 14 15 24 4 11 5 23 3 37-4 17-6 22-18 40-8 13-19 24-32 34-12 10-14 12-12 12l16-8 29-17-25 28c-10 10-15 15-14 16s10-4 22-12l15-11c7-4 14-10 17-13 2-2 2-2 2 0l-4 6-6 9c-3 7 0 18 6 24 3 2 8 3 11 1l2-1c2 1 6 7 6 10l2 11v16l-3 49c-2 44-2 45-8 52l-7 9c-8 10-21 25-31 34-9 9-12 11-12 9l10-15 17-24c0-3-4 1-20 16a461 461 0 0 1-85 70c-11 8-39 15-39 11 0-2 2-3 16-12 25-15 47-35 67-61l18-22c4-4 4-7 0-5s-12 10-22 21c-17 19-41 40-46 40-2 0 0-3 10-15a291 291 0 0 0 24-32c2-2 4-9 3-10l-3-1c-4 0-8 4-17 16-14 20-32 39-37 39-3 0-3-1 1-6l31-40 2-11c0-5 1-7 3-13 3-5 11-16 18-23 3-3 9-15 9-16-2-1-12 7-22 20a237 237 0 0 1-40 38c-18 16-31 25-55 37-23 12-29 14-53 20-10 3-14 3-29 4a145 145 0 0 1-87-20c-1 0 4 6 9 10l6 4 2 1 3 2 5 1c5 0 21 10 25 15 2 3 3 5 0 3l-5-1h-3l-5-2-4-3-1-1-1 1c0 2 14 15 21 20 4 2 6 5 4 7a438 438 0 0 1-150-14l-11-3c-16-5-20-7-26-11-5-4-7-8-10-19-1-8-2-12-1-47a651 651 0 0 1 6-107 418 418 0 0 1 13-92 513 513 0 0 0 6-27l6-20a555 555 0 0 0 10-35l3-9c6-20 9-23 40-37a52 52 0 0 1 10-4l35-14 9-3a254 254 0 0 1 20-7 422 422 0 0 1 37-12l10-3a275 275 0 0 1 37-9 508 508 0 0 1 59-16 176 176 0 0 0 19-4l7-1 31-6 28-6c9-3 55-2 66 1zM388 547c1 11 0 26-3 38l-3 19c-1 10-1 12-3 11-1-1 2-59 3-68 2-7 4-11 5-9l1 9zm529 80c0 10-6 19-22 34l-12 11-3 2a849 849 0 0 0 36-52l1 5zm-128-2c0 3-4 9-9 14s-16 13-18 12c0-1 24-26 26-26h1z"/><path d="M773 252c-17 4-28 9-37 18-4 5-4 6-3 11 2 4 3 5 6 5h18l3-1 15-3c27-6 34-6 47 0l10 5c5 1 5 1 8-1l2-4 2-10 1-11c-1-5-7-7-19-8l-18-2c-11-2-26-1-35 1zm48 6c1 2 1 5-1 7-2 4-18 2-17-2s15-8 18-5zM521 307c-10 2-21 6-25 9-5 4-7 10-10 25v4l6-3 23-17c6-5 11-6 27-6 15-1 14-1 25 7 8 4 11 6 14 4 5-3 1-13-7-18-3-2-10-4-22-6h-31zM780 318a149 149 0 0 0-63 45c-2 4-2 5-1 12 0 10 5 23 10 30 4 6 15 18 19 20 9 4 15 6 30 5l18-1 6-2 5-1 8-4c10-3 22-13 32-25l7-8 3-6c7-12 8-26 3-37-4-7-15-20-21-23l-15-5c-12-3-32-3-41 0zm43 12c15 7 22 18 22 33 0 6 0 8-3 13-4 7-10 15-14 16-2 0-3 0-5-3l-2-3c0-3-6-9-10-10-6-2-20 0-32 6-8 3-10 5-13 11-2 4-2 5-1 11 2 13 2 14 0 14-7 2-23-5-32-14s-11-14-11-24c0-7 0-8 4-13 9-13 26-27 38-33 13-6 25-8 43-8 9 1 10 1 16 4zm-17 53c2 1 2 2 3 9 1 5-1 10-4 12-3 1-3 1-4-1l-2-11v-10c2-2 6-1 7 1zm-25 18c0 3-3 5-4 3v-8c1-2 4 2 4 5zM712 322c-14 16-19 24-15 28 1 1 2 0 2-3 1-5 4-10 10-17l4-7 1-1 1-1c0-2-1-1-3 1z"/><path d="M867 323l4 6c6 10 7 15 7 27s-1 18-8 31c-5 10-13 21-24 30-10 8-18 13-33 21-17 9-17 11 0 7l11-3 23-11 18-14c8-8 15-22 19-35 6-21 7-25 4-33-1-6-4-10-11-18l-10-8zM531 350c-19 4-28 8-39 18-6 5-14 17-13 18l6-4 28-19c11-4 16-5 35-5l24 1c12 4 15 10 15 27 0 19-3 27-20 44-6 6-12 8-13 6v-6c2-7 0-11-4-15-12-9-32-7-41 3-4 5-9 15-9 20s-1 8-3 8c-3 0-14-7-19-12-6-6-11-12-11-15s-2-4-3-1c-2 2-2 2 2 8 8 12 16 18 29 25 8 4 13 6 18 6 15 2 19 5 14 9-4 5-9 6-20 6-10 0-11 0-17-3-13-6-24-20-30-39l-3-6-5 3c-3 4-3 4-3 8 2 5 7 17 12 23 7 8 19 16 33 21 6 2 23 5 29 5 7 0 17-3 22-5 4-2 8-2 8-1l-1 5c-2 8-3 17-2 22 3 14 4 17 7 23 4 11 13 20 29 29l13 8c13 11 16 12 31 10 32-5 41-9 70-34l12-8-1 1-1 1-11 15-4 7-2 3 3-1 10-8 12-10c9-8 21-19 24-25 5-6 6-12 2-13-3 0-12 6-19 13l-8 6 5-9c8-16 9-18 9-24v-6c-2-2-7 1-15 9-20 22-36 35-52 42s-36 13-45 13c-18 0-44-13-54-28-2-3-3-4-3-23l1-20 3-6c4-5 6-9 10-12l10-11c12-15 25-26 36-33 7-4 7-5 3-5-4 1-5 0-4-5 1-7 9-12 22-13l7-2h3l-4-2-6-3c-2-3-2-3-1-7 1-5 7-9 14-10 6 0 7-1 1-2s-10-1-16 1c-8 2-15 2-17 0l-2-5c0-5-2-7-7-7-4 0-4 0-3 3 2 3 0 7-5 10-3 2-4 2-12-4s-14-8-28-11c-13-3-27-4-37-2zm6 69c2 1 5 9 4 12l-2 3c-2 1-3 0-6-3-6-6-7-8-6-11 1-2 7-3 10-1zm26 38c0 4-10 14-15 14l-10-9 17-5h8z"/><path d="M700 367c-1 3-5 7-9 11-9 8-9 8-5 35 2 13 6 16 20 17l25 4 6 2 6-1c0-2-2-4-9-9-7-4-16-13-20-20-4-5-7-14-7-18l-4-25-3 4zm2 38c7 8 9 12 9 13-1 3-11 2-14 0-2-2-4-8-4-15 0-6 3-5 9 2zM795 476v12l4 13c0 3-1 3-9 11a272 272 0 0 1-36 25 328 328 0 0 1-77 37l-32 8-12 2c-10 3-23 4-44 5-26 0-27 0-52-8-23-7-33-14-40-24-3-4-3-6-3-15 0-7-1-11-2-11-2 0-7 5-10 11-5 10-10 15-22 28-11 11-13 15-11 18 2 1 6 1 12-1 6-3 8-1 8 4-2 9-2 18-1 20 3 6 8 12 9 10l-1-2c-1 0-2-1-2-4 1-4 1-4 3-4 4-1 5 1 2 2-1 1-1 1 2 4l4 4c1-1 1 0 1 1l1 2 4 3 4 2 1 2 2 1 26 18a76 76 0 0 0 20 13l31 11c12 4 53 7 66 5 6 0 15-3 27-7 21-7 27-10 37-17l33-21c18-11 28-19 40-33l7-9c10-11 20-28 26-43l9-19h7a497 497 0 0 1 28 14l-8 19a3151 3151 0 0 0-19 41c2 1 8-5 11-11 1-3 4-7 7-9 11-9 14-12 16-20l4-9 2-2 4 2c3 1 6 3 6 5 1 2 2 3 3 2l2-2c0-2-6-8-9-9l-10-6c-6-4-8-6-9-9-2-4-6-8-14-11l-10-4c-8-3-15-8-18-12l-7-17c-3-9-9-18-11-16zm14 40l2 5c0 4-5 11-14 19l-15 14c-4 5-9 9-12 10-6 3-10 7-13 14-4 10-10 14-19 14h-7l-8 6c-12 9-19 12-31 12-8 0-10 1-16 6-10 8-13 9-34 10l-38 1h-18l-10-4-18-6c-22-4-32-9-47-20-15-12-23-22-24-31 0-6 1-11 3-10 1 0 3 2 4 5 12 23 53 40 99 40a328 328 0 0 0 72-8l11-3c25-6 33-9 48-18l8-4 10-6a439 439 0 0 0 64-49l3 3zm-29 61c-2 4-5 8-21 23a310 310 0 0 1-85 55l-8 3-7 3-7 2c-16 4-20 4-40 4a161 161 0 0 1-75-15c-7-4-31-21-35-26s-13-25-11-27c1-1 5 2 14 11l13 11c3 3 15 9 22 12 33 14 42 16 62 15a366 366 0 0 0 61-6 355 355 0 0 1 20-9l17-7 21-10c13-6 16-8 24-15 8-8 12-11 25-19l8-6c3-4 4-3 2 1z"/><path d="M679 498l-13 9c-15 11-23 15-27 12v-8c2-1 1-2-2-2-4 0-11 2-15 5l-20 15-2 2 12 1c15 1 21 1 32-4 13-4 20-9 28-16 8-9 13-18 7-14zM761 502c-5 6-14 22-13 22 4 0 10-7 15-15 5-7 3-12-2-7zM393 323c-1 3 0 5 1 2v-4l-1 2zM1048 641c-2 3-1 10 1 13 1 2 4 3 8 0 3-1 4-1 6 1l4 1 4 2c1 2 1 2-1 2l-2 1h-10a72 72 0 0 0 21 9l17 4h3l-4-4-7-6-4-3-16-11-11-8c-4-3-7-3-9-1zM935 663l-7 19c-2 8-4 13-12 24-6 8-14 15-16 15s-6 4-6 4c1 1 12-1 17-3 9-3 13-6 21-15 6-7 11-10 15-12l8-5c3-3 4-3 4 2s2 7 4 4 1-7 0-8l-2-2c0-3-2-4-8-5l-7-1c-2-1-4-6-6-14l-3-7-2 4zM1218 677l3 3c9 6 14 13 14 21 0 5-6 14-15 24-6 7-9 9-17 13l-10 6c0 1 7 1 12-1l6-1 8-3c9-5 17-13 22-22 3-7 3-8 3-16 0-10-1-13-8-18s-18-9-18-6zM964 699l-1 4v2l1 2c-1 2-1 2-2 1-2-2-3-2-5 0-3 2-2 3 3 3 6-1 7-3 6-13 0-3-2-2-2 1zM1197 702c-5 8-9 17-6 17s13-15 13-19-4-2-7 2zM943 712c-1 1 1 1 3 1l4-1-3-1-4 1zM1107 791c-4 3-14 12-13 13 1 0 10-6 19-14 4-3-1-3-6 0zM830 918l-16 3c-19 2-25 5-40 16a99 99 0 0 0-24 23c-8 10-10 12-24 22-16 12-22 18-22 20l2 5 2 12 1 10h8c17-2 27-2 31-1l15 8 14 6c5 0 11-4 18-11 8-8 13-12 20-16 6-3 8-5 12-12 5-8 11-15 13-15l4 3 4 3c2 0 7-2 10-5l7-2c4-1 4-1 2-2-1 0-2-1-2-4s1-4 4-7l7-4c3-1 9-5 11-8 2-2 2-4 1-9v-6h-5c-4 0-5 0-8 3-2 2-3 4-3 8-1 6-3 8-9 9-7 2-12 4-16 8l-3 5c0 2-4 3-6 2-3-2-6 0-13 9-7 10-14 16-30 28-12 10-18 13-23 13-8 0-17-5-16-8 1-4 5-8 15-16 9-7 14-13 20-21 11-14 14-17 22-24l20-11c1 0 7-5 6-6l-21 3c-13 2-24 11-35 28l-7 11c-2 3-11 16-15 19-10 9-25 15-33 13-6-1-8-4-10-12-2-7-2-7-1-10l19-13a264 264 0 0 0 17-9l18-16c15-16 21-21 31-26 6-3 16-6 25-7s13-6 6-9h-3zM581 923l-1 2 7 2 7-1v-3c0-2-11-1-13 0zM660 926c-1 4 0 5 2 5 4 0 4-4 0-7-2-1-2-1-2 2zM917 932l-21 11 6-2c3-1 2 3-2 9l-3 6 13-6c5-4 11-12 11-16 0-3-1-3-4-2zM305 941l2 1 1-1-1-2-2 2zM575 941l-2 2c0 2 8 13 9 13l3-4c5-8-3-16-10-11zM607 946l2 2c3 1 4 1 4-1-1-2-5-3-7-1zM650 950l-2 2c0 2 1 2 6 2s6 0 6-2c0-3-4-4-10-2zM691 954l13 2c2-1 2-1-1-2h-12zM560 966l-2 3c0 4 11 12 16 12 4 0 7-5 6-10-2-7-1-7-10-7l-10 2zM596 971c-1 0-2 1-2 3 0 3 1 4 4 5 5 3 14 3 15 1 2-3 1-6-2-8-2-1-12-2-15-1zM635 974c0 3 1 4 6 5 11 2 12 2 14 0 3-2 3-4 0-6-2-2-3-2-10-2-9 0-9 0-10 3zM556 994c-3 1-4 3-3 10 0 8-1 10-8 14l-6 3c-1 1 0 2 3 2 9 2 17-3 21-13 3-6 3-15 0-16h-7zM347 998c-4 4-8 15-6 16 4 2 8-5 8-13 0-5-1-5-2-3zM514 998l-2 7-1 7c-2 4 3 2 7-2 6-5 6-9-1-12h-3zM597 999c-2 2-4 4-5 9l-3 8-8 2-7 2c0 3 11 5 17 3 5-1 9-7 11-15 2-4 2-6 1-8-2-3-3-4-6-1zM638 999v5c0 5-1 7-7 12l-6 6c0 3 7 2 14-1 6-3 8-9 8-17v-6h-5l-4 1zM678 999c-1 1 0 3 1 6 3 6 2 10-3 12-5 3-5 5 1 6 9 1 14-5 13-16-1-4-1-6-3-7-2-2-8-3-9-1zM843 1008l-2 6c0 7-2 11-8 13-3 1-4 2-4 4 1 3 11 4 16 0 3-2 6-11 6-17 0-7-5-10-8-6zM269 1035l-1 2 14 1 51 6c1 2 13 3 30 4 18 1 131 0 133-1 2-2-2-3-12-2l-22-1c-9-2-25-2-73-3-34 0-63-1-66-2a149 149 0 0 0-54-4zM262 1058c0 1 12 3 13 2s0-2-7-3l-6 1zM1234 1237l-14 4c-11 2-15 4-29 10-11 4-12 4-22 4-12 0-15 1-26 8-12 7-14 7-21 4s-8-3-15 2c-9 5-17 8-26 9l-11 7-17 13-15 1-13 1-18 8a226 226 0 0 1-42 18l-7 2-11 5c-10 4-15 5-40 8l-25 6h-18c-23-1-24-1-38 8-4 2-5 2-13 1-12-1-14 0-22 2l-19 4c-18 2-28 6-44 18l-11 7-24 1a319 319 0 0 0-60 4 209 209 0 0 0-15 1c-1-1 5-5 9-8 9-4 5-7-8-5l-21 1c-18 1-23-1-23-9 0-4 2-9 9-19s8-11 10-17c5-16 5-25-1-34-3-5-9-12-11-12s-1 4 2 10c6 11 5 17-4 35-8 18-10 23-11 34 0 8-3 14-8 16l-22-4c-15-4-41-4-59 1-8 2-20 3-52 4a364 364 0 0 1-84-4l-13-2-15-4-13-3h-20c-3 2-3 2-5 7 0 3 0 3-1 2-5-8-12-13-21-14-8-1-10 1-9 11 1 9-1 10-5 1l-4-9c-2-4-14-13-21-14-3-1-9 1-13 4-2 2-2 3-2 8v5c-2 0-8-10-11-19-3-6-5-8-11-8-3 0-5 1-7 3-3 2-3 3-4 10l-1 8-4-5c0-2-4-9-7-12-4-3-11-7-14-7l-4 2c-3 3-14 3-29-1-14-2-18-3-21 0l-12 1c-37-3-44-2-47 1-4 3 0 10 10 17a253 253 0 0 0 65 32 126 126 0 0 0 54 5c6-1 12 0 15 2l8 5c7 3 8 3 14 3l10-1c4-3 14-3 20 0l19 1c14 0 16 0 22-2 7-3 11-2 30 0a1493 1493 0 0 1 34 7 1706 1706 0 0 0-46 15l-10 3-9 2a765 765 0 0 0-92 29c-5 2-5 2 5 0l18-5 35-8 15-3 23-4 20-4a1235 1235 0 0 1 122-22l-9 2a292 292 0 0 1-21 6l-16 5a1659 1659 0 0 0-88 32l20-5 20-5 8-1c2 0 13-2 21-5l13-3 22-5 22-5a731 731 0 0 0 68-15l13-3a718 718 0 0 0 44-9l29-5h18c0 1-20 7-43 12l-37 8-21 5a567 567 0 0 0-76 23l-12 4h7c18-2 34-4 46-7l28-6c5 0 11-2 14-3l34-6 16-3 15-3 14-2 16-3 40-8c20-4 29-5 38-5 10 0 9 0-6 3a412 412 0 0 0-39 8 367 367 0 0 0-61 16l-13 4-8 2-20 6-21 7c-11 3-10 6 0 3a290 290 0 0 1 45-7 683 683 0 0 1 55-12l12-3 13-3 44-7 32-4c10-2 35-4 42-4h6l-7 1-16 4-14 3-9 2-19 4a385 385 0 0 0-74 23l1 2 16-2a270 270 0 0 0 59-9 338 338 0 0 1 35-7l16-3 18-3 17-3a400 400 0 0 0 23-4 628 628 0 0 0 67-9l15-2h13l-7 2-37 8a1531 1531 0 0 1-88 20c-21 5-26 6-29 8-5 2-2 3 8 2l22-2c14-1 19-2 34-5l17-3a479 479 0 0 0 36-5l18-3 45-7a1327 1327 0 0 0 31-3 1432 1432 0 0 1 77-7l17-3 9-2 20-4c6 0 14-3 14-5-1-2-10-2-42 0-23 2-95 4-96 3s3-3 12-5a830 830 0 0 0 55-15h-29a1155 1155 0 0 0-77 8 524 524 0 0 1-35 3c0-1 5-3 31-10l21-6a256 256 0 0 1 88-21 231 231 0 0 0 46-6l6-1 10-4 10-3 11-3a637 637 0 0 0 64-23 451 451 0 0 0 49-27c14-6 14-6 30-17 20-13 29-23 29-33 0-5 0-6-2-9-4-4-5-4-12 0zm-71 41c0 2-3 5-11 10-8 6-11 7-11 5l17-15h5zm-44 8c0 3-4 10-9 14-7 8-9 6-4-3 4-6 11-14 12-13l1 2zm-39 19l-2 4-15 12c-3 0 0-4 6-11 7-7 11-9 11-5zm-50 20c0 1-6 4-7 3-1 0 6-6 7-5v2zm-887 45l-1 1-4-7 2 1 3 5zm-42-2c5 5 9 12 8 13s-10-6-13-10c-5-8-1-10 5-3zm752 1c0 2-1 3-2 3-2 0-3-2-1-4s3-1 3 2zm-126 24l2 2c0 2-1 2-5 2-5 0-5-1-2-3s3-2 5-1zm163 20h-6c-2-1-1-1 2-1 4 0 5 0 4 1zM104 1237c-10 1-19 4-28 8-10 4-23 11-29 15-18 11-30 28-30 42 0 4 1 6 3 8 3 3 3 3 5 2l1-5c0-12 15-29 30-35a227 227 0 0 1 29-10c30-11 45-13 69-12a475 475 0 0 1 60 7c4 1 12 3 17 6l10 4c3 0 9-6 9-8l-6-3a101 101 0 0 1-19-5l-10-3c-15-6-34-9-63-11-24-2-38-2-48 0z"/><path d="M53 1294c-5 5-8 12-6 15l4 1c3 1 14-1 15-2 2-2 1-11-1-15-4-5-7-5-12 1zM90 1301c-7 1-9 7-5 9 3 2 11 2 12 0 2-3 1-7-1-8-3-2-3-2-7-1zM1057 1427l-28 2a680 680 0 0 0-142 16c-33 6-32 6-32 7 0 2 36 0 61-3a668 668 0 0 1 89-8l14-1 24-2 20-1-1-2-1-1c1-2 19-3 33-3 11 0 12 0 9-1l-8-2c-4-1-31-2-38-1zM1188 1433c-3 1-3 1 1 1 3 0 5 0 4-1l-1-1-4 1zM1166 1436h9c1-1 0-1-4-1l-6 1zM1143 1438l-18 2h-42c-7-2-13-2-13-1l6 2 9 1c2 2 34 2 43 1l19-2 10-2-1-1h-13z"/></svg>