<?xml version="1.0" standalone="no"?>
<!DOCTYPE svg PUBLIC "-//W3C//DTD SVG 20010904//EN"
 "http://www.w3.org/TR/2001/REC-SVG-20010904/DTD/svg10.dtd">
<svg version="1.0" xmlns="http://www.w3.org/2000/svg"
 width="500.000000pt" height="500.000000pt" viewBox="0 0 500.000000 500.000000"
 preserveAspectRatio="xMidYMid meet">
<metadata>
Created by potrace 1.11, written by Peter Selinger 2001-2013
</metadata>
<g transform="translate(0.000000,500.000000) scale(0.100000,-0.100000)"
fill="#000000" stroke="none">
<path d="M2195 4975 c-852 -101 -1626 -672 -1970 -1453 -208 -473 -268 -999
-169 -1492 99 -494 332 -930 685 -1281 382 -380 855 -617 1394 -699 197 -31
512 -31 710 -1 541 81 1015 319 1396 700 403 403 637 876 715 1446 24 168 21
485 -5 660 -53 355 -166 668 -348 960 -410 657 -1099 1088 -1862 1165 -136 13
-409 11 -546 -5z m505 -1475 l0 -1040 630 0 630 0 0 -205 0 -205 -855 0 -855
0 0 1245 0 1245 225 0 225 0 0 -1040z"/>
</g>
</svg>
