<svg xmlns="http://www.w3.org/2000/svg" xmlns:xlink="http://www.w3.org/1999/xlink" fill="none" stroke="none" stroke-linecap="square" stroke-miterlimit="10" version="1.1" viewBox="0 0 960 720"><clipPath id="p.0"><path d="m0 0l960.0 0l0 720.0l-960.0 0l0 -720.0z" clip-rule="nonzero"/></clipPath><g clip-path="url(#p.0)"><path fill="#000" fill-opacity="0" fill-rule="evenodd" d="m0 0l960.0 0l0 720.0l-960.0 0z"/><path fill="#2e3b59" fill-rule="evenodd" d="m376.9677 307.74722l242.5213 0l0 105.60791l-242.5213 0z"/><path fill="#57627a" fill-rule="evenodd" d="m370.2756 301.0551l255.90549 0l-6.6920776 6.692108l-242.5213 0z"/><path fill="#242f47" fill-rule="evenodd" d="m370.2756 420.04724l6.692108 -6.692108l242.5213 0l6.6920776 6.692108z"/><path fill="#81899b" fill-rule="evenodd" d="m370.2756 301.0551l6.692108 6.692108l0 105.60791l-6.692108 6.692108z"/><path fill="#1b2335" fill-rule="evenodd" d="m626.1811 301.0551l0 118.99213l-6.6920776 -6.692108l0 -105.60791z"/><path fill="#000" fill-opacity="0" fill-rule="evenodd" d="m370.2756 301.0551l255.90549 0l0 118.99213l-255.90549 0zm6.692108 6.692108l242.5213 0l0 105.60791l-242.5213 0zm-6.692108 -6.692108l6.692108 6.692108m-6.692108 112.30002l6.692108 -6.692108m249.21338 -112.30002l-6.6920776 6.692108m6.6920776 112.30002l-6.6920776 -6.692108"/><path fill-rule="evenodd" stroke="#70cad1" stroke-linecap="butt" stroke-linejoin="round" stroke-width="1" d="m370.2756 301.0551l255.90549 0l0 118.99213l-255.90549 0zm6.692108 6.692108l242.5213 0l0 105.60791l-242.5213 0zm-6.692108 -6.692108l6.692108 6.692108m-6.692108 112.30002l6.692108 -6.692108m249.21338 -112.30002l-6.6920776 6.692108m6.6920776 112.30002l-6.6920776 -6.692108"/><path fill="#fff" fill-rule="nonzero" d="m458.11044 361.73682l-1.5 1.59375l0 4.140625l-2.3125 0l0 -13.265625l2.3125 0l0 6.21875l1.265625 -1.578125l3.890625 -4.640625l2.78125 0l-4.921875 5.875l5.203125 7.390625l-2.734375 0l-3.984375 -5.734375zm7.076782 0.71875q0 -1.453125 0.578125 -2.609375q0.578125 -1.171875 1.609375 -1.78125q1.03125 -0.625 2.390625 -0.625q1.984375 0 3.234375 1.28125q1.25 1.28125 1.34375 3.40625l0.015625 0.515625q0 1.453125 -0.5625 2.609375q-0.5625 1.140625 -1.609375 1.78125q-1.046875 0.625 -2.40625 0.625q-2.09375 0 -3.34375 -1.390625q-1.25 -1.390625 -1.25 -3.703125l0 -0.109375zm2.21875 0.1875q0 1.515625 0.625 2.390625q0.625 0.859375 1.75 0.859375q1.125 0 1.734375 -0.875q0.625 -0.875 0.625 -2.5625q0 -1.5 -0.640625 -2.375q-0.640625 -0.875 -1.734375 -0.875q-1.09375 0 -1.734375 0.859375q-0.625 0.859375 -0.625 2.578125zm14.699799 4.828125q-0.140625 -0.28125 -0.25 -0.921875q-1.046875 1.109375 -2.578125 1.109375q-1.484375 0 -2.4375 -0.84375q-0.9375 -0.859375 -0.9375 -2.109375q0 -1.578125 1.171875 -2.40625q1.171875 -0.84375 3.359375 -0.84375l1.359375 0l0 -0.65625q0 -0.765625 -0.4375 -1.21875q-0.421875 -0.46875 -1.296875 -0.46875q-0.765625 0 -1.25 0.390625q-0.46875 0.375 -0.46875 0.953125l-2.21875 0q0 -0.8125 0.53125 -1.515625q0.546875 -0.703125 1.46875 -1.09375q0.921875 -0.40625 2.0625 -0.40625q1.734375 0 2.75 0.875q1.03125 0.859375 1.0625 2.4375l0 4.4375q0 1.328125 0.375 2.125l0 0.15625l-2.265625 0zm-2.421875 -1.59375q0.65625 0 1.234375 -0.3125q0.578125 -0.328125 0.875 -0.859375l0 -1.859375l-1.203125 0q-1.234375 0 -1.859375 0.4375q-0.609375 0.421875 -0.609375 1.203125q0 0.640625 0.421875 1.015625q0.421875 0.375 1.140625 0.375zm18.426666 -1.828125q0 -0.875 -0.625 -1.34375q-0.609375 -0.46875 -2.21875 -0.953125q-1.59375 -0.484375 -2.546875 -1.078125q-1.8125 -1.140625 -1.8125 -2.96875q0 -1.609375 1.3125 -2.640625q1.3125 -1.046875 3.390625 -1.046875q1.390625 0 2.46875 0.515625q1.09375 0.515625 1.703125 1.453125q0.625 0.9375 0.625 2.09375l-2.296875 0q0 -1.046875 -0.65625 -1.625q-0.640625 -0.59375 -1.859375 -0.59375q-1.125 0 -1.75 0.484375q-0.625 0.484375 -0.625 1.34375q0 0.734375 0.671875 1.21875q0.671875 0.484375 2.21875 0.953125q1.546875 0.453125 2.484375 1.046875q0.9375 0.59375 1.375 1.359375q0.4375 0.75 0.4375 1.765625q0 1.65625 -1.265625 2.640625q-1.265625 0.984375 -3.453125 0.984375q-1.4375 0 -2.640625 -0.53125q-1.203125 -0.546875 -1.875 -1.484375q-0.671875 -0.9375 -0.671875 -2.1875l2.3125 0q0 1.140625 0.734375 1.765625q0.75 0.609375 2.140625 0.609375q1.203125 0 1.8125 -0.484375q0.609375 -0.484375 0.609375 -1.296875zm8.446838 3.609375q-2.09375 0 -3.40625 -1.328125q-1.3125 -1.328125 -1.3125 -3.53125l0 -0.28125q0 -1.46875 0.5625 -2.625q0.578125 -1.171875 1.609375 -1.8125q1.03125 -0.640625 2.296875 -0.640625q2.015625 0 3.109375 1.28125q1.09375 1.28125 1.09375 3.625l0 0.890625l-6.4375 0q0.109375 1.234375 0.8125 1.953125q0.71875 0.703125 1.8125 0.703125q1.515625 0 2.46875 -1.234375l1.203125 1.140625q-0.59375 0.875 -1.59375 1.375q-0.984375 0.484375 -2.21875 0.484375zm-0.265625 -8.453125q-0.90625 0 -1.46875 0.640625q-0.5625 0.640625 -0.703125 1.78125l4.203125 0l0 -0.171875q-0.0625 -1.109375 -0.59375 -1.671875q-0.515625 -0.578125 -1.4375 -0.578125zm11.105072 0.4375q-0.4375 -0.078125 -0.90625 -0.078125q-1.515625 0 -2.046875 1.171875l0 6.734375l-2.21875 0l0 -9.859375l2.125 0l0.046875 1.109375q0.796875 -1.28125 2.21875 -1.28125q0.484375 0 0.78125 0.125l0 2.078125zm5.0354004 5.015625l2.09375 -7.046875l2.28125 0l-3.421875 9.859375l-1.921875 0l-3.4375 -9.859375l2.296875 0l2.109375 7.046875zm9.968811 3.0q-2.09375 0 -3.40625 -1.328125q-1.3125 -1.328125 -1.3125 -3.53125l0 -0.28125q0 -1.46875 0.5625 -2.625q0.578125 -1.171875 1.609375 -1.8125q1.03125 -0.640625 2.296875 -0.640625q2.015625 0 3.109375 1.28125q1.09375 1.28125 1.09375 3.625l0 0.890625l-6.4375 0q0.109375 1.234375 0.8125 1.953125q0.71875 0.703125 1.8125 0.703125q1.515625 0 2.46875 -1.234375l1.203125 1.140625q-0.59375 0.875 -1.59375 1.375q-0.984375 0.484375 -2.21875 0.484375zm-0.265625 -8.453125q-0.90625 0 -1.46875 0.640625q-0.5625 0.640625 -0.703125 1.78125l4.203125 0l0 -0.171875q-0.0625 -1.109375 -0.59375 -1.671875q-0.515625 -0.578125 -1.4375 -0.578125zm11.105103 0.4375q-0.4375 -0.078125 -0.90625 -0.078125q-1.515625 0 -2.046875 1.171875l0 6.734375l-2.21875 0l0 -9.859375l2.125 0l0.046875 1.109375q0.796875 -1.28125 2.21875 -1.28125q0.484375 0 0.78125 0.125l0 2.078125z"/><path fill="#2e3b59" fill-rule="evenodd" d="m288.89502 43.868767l0 0c0 -18.15147 14.714661 -32.866142 32.86615 -32.866142l352.9449 0c8.716614 0 17.076233 3.4626732 23.239868 9.62627c6.163574 6.163597 9.626282 14.523228 9.626282 23.239872l0 131.46457c0 18.151474 -14.714722 32.86615 -32.86615 32.86615l-352.9449 0c-18.15149 0 -32.86615 -14.714676 -32.86615 -32.86615z"/><path fill-rule="evenodd" stroke="#70cad1" stroke-linecap="butt" stroke-linejoin="round" stroke-width="1" d="m288.89502 43.868767l0 0c0 -18.15147 14.714661 -32.866142 32.86615 -32.866142l352.9449 0c8.716614 0 17.076233 3.4626732 23.239868 9.62627c6.163574 6.163597 9.626282 14.523228 9.626282 23.239872l0 131.46457c0 18.151474 -14.714722 32.86615 -32.86615 32.86615l-352.9449 0c-18.15149 0 -32.86615 -14.714676 -32.86615 -32.86615z"/><path fill="#fff" fill-rule="nonzero" d="m444.51093 68.271286l8.671875 -26.6875l6.515625 0l-12.28125 34.125l-5.75 0l-12.234375 -34.125l6.5 0l8.578125 26.6875zm33.179688 4.953125q-2.5 2.953125 -7.125 2.953125q-4.125 0 -6.25 -2.40625q-2.109375 -2.421875 -2.109375 -7.0l0 -16.421875l5.6875 0l0 16.359375q0 4.828125 4.015625 4.828125q4.140625 0 5.59375 -2.984375l0 -18.203125l5.703125 0l0 25.359375l-5.375 0l-0.140625 -2.484375zm22.484375 2.953125q-5.421875 0 -8.78125 -3.40625q-3.359375 -3.421875 -3.359375 -9.09375l0 -0.703125q0 -3.796875 1.453125 -6.78125q1.46875 -2.984375 4.109375 -4.640625q2.65625 -1.671875 5.921875 -1.671875q5.171875 0 8.0 3.3125q2.828125 3.296875 2.828125 9.34375l0 2.296875l-16.578125 0q0.265625 3.140625 2.09375 4.96875q1.84375 1.828125 4.640625 1.828125q3.90625 0 6.375 -3.171875l3.0625 2.9375q-1.515625 2.265625 -4.0625 3.53125q-2.546875 1.25 -5.703125 1.25zm-0.6875 -21.734375q-2.34375 0 -3.78125 1.640625q-1.4375 1.640625 -1.84375 4.578125l10.859375 0l0 -0.421875q-0.1875 -2.859375 -1.53125 -4.328125q-1.328125 -1.46875 -3.703125 -1.46875zm29.789062 -12.859375l5.90625 0l0 23.921875q0 4.90625 -3.0625 7.796875q-3.046875 2.875 -8.0625 2.875q-5.34375 0 -8.25 -2.6875q-2.90625 -2.703125 -2.90625 -7.515625l5.90625 0q0 2.71875 1.34375 4.09375q1.34375 1.375 3.90625 1.375q2.390625 0 3.796875 -1.578125q1.421875 -1.59375 1.421875 -4.375l0 -23.90625zm30.523438 25.328125q0 -2.25 -1.59375 -3.46875q-1.578125 -1.21875 -5.703125 -2.453125q-4.125 -1.25 -6.5625 -2.765625q-4.65625 -2.9375 -4.65625 -7.640625q0 -4.125 3.359375 -6.796875q3.359375 -2.671875 8.734375 -2.671875q3.5625 0 6.34375 1.3125q2.796875 1.3125 4.390625 3.734375q1.59375 2.421875 1.59375 5.375l-5.90625 0q0 -2.671875 -1.6875 -4.171875q-1.671875 -1.515625 -4.78125 -1.515625q-2.90625 0 -4.515625 1.25q-1.609375 1.234375 -1.609375 3.453125q0 1.875 1.734375 3.140625q1.734375 1.25 5.71875 2.4375q3.984375 1.171875 6.390625 2.6875q2.421875 1.515625 3.546875 3.46875q1.125 1.953125 1.125 4.578125q0 4.265625 -3.265625 6.796875q-3.265625 2.515625 -8.875 2.515625q-3.703125 0 -6.8125 -1.375q-3.09375 -1.375 -4.828125 -3.78125q-1.71875 -2.421875 -1.71875 -5.625l5.9375 0q0 2.90625 1.921875 4.5q1.921875 1.59375 5.5 1.59375q3.09375 0 4.65625 -1.25q1.5625 -1.265625 1.5625 -3.328125z"/><path fill="#2e3b59" fill-rule="evenodd" d="m417.063 500.24408l0 0c0 11.206604 36.33896 20.291382 81.165344 20.291382c44.826416 0 81.165344 -9.084778 81.165344 -20.291382l0 152.96063c0 11.206604 -36.33893 20.29132 -81.165344 20.29132c-44.826385 0 -81.165344 -9.084717 -81.165344 -20.29132z"/><path fill="#81899b" fill-rule="evenodd" d="m417.063 500.24408l0 0c0 -11.2065735 36.33896 -20.29132 81.165344 -20.29132c44.826416 0 81.165344 9.084747 81.165344 20.29132l0 0c0 11.206604 -36.33893 20.291382 -81.165344 20.291382c-44.826385 0 -81.165344 -9.084778 -81.165344 -20.291382z"/><path fill="#000" fill-opacity="0" fill-rule="evenodd" d="m579.3937 500.24408l0 0c0 11.206604 -36.33893 20.291382 -81.165344 20.291382c-44.826385 0 -81.165344 -9.084778 -81.165344 -20.291382l0 0c0 -11.2065735 36.33896 -20.29132 81.165344 -20.29132c44.826416 0 81.165344 9.084747 81.165344 20.29132l0 152.96063c0 11.206604 -36.33893 20.29132 -81.165344 20.29132c-44.826385 0 -81.165344 -9.084717 -81.165344 -20.29132l0 -152.96063"/><path fill-rule="evenodd" stroke="#70cad1" stroke-linecap="butt" stroke-linejoin="round" stroke-width="1" d="m579.3937 500.24408l0 0c0 11.206604 -36.33893 20.291382 -81.165344 20.291382c-44.826385 0 -81.165344 -9.084778 -81.165344 -20.291382l0 0c0 -11.2065735 36.33896 -20.29132 81.165344 -20.29132c44.826416 0 81.165344 9.084747 81.165344 20.29132l0 152.96063c0 11.206604 -36.33893 20.29132 -81.165344 20.29132c-44.826385 0 -81.165344 -9.084717 -81.165344 -20.29132l0 -152.96063"/><path fill="#fff" fill-rule="nonzero" d="m461.6941 580.5245l3.40625 9.625l3.390625 -9.625l3.59375 0l0 13.265625l-2.75 0l0 -3.625l0.28125 -6.265625l-3.578125 9.890625l-1.875 0l-3.578125 -9.875l0.28125 6.25l0 3.625l-2.734375 0l0 -13.265625l3.5625 0zm12.186188 8.25q0 -1.46875 0.5625 -2.609375q0.578125 -1.15625 1.640625 -1.78125q1.0625 -0.625 2.453125 -0.625q2.0 0 3.265625 1.21875q1.265625 1.21875 1.40625 3.3125l0.015625 0.671875q0 2.265625 -1.265625 3.640625q-1.265625 1.375 -3.40625 1.375q-2.125 0 -3.40625 -1.359375q-1.265625 -1.375 -1.265625 -3.734375l0 -0.109375zm2.640625 0.1875q0 1.40625 0.53125 2.15625q0.53125 0.734375 1.515625 0.734375q0.953125 0 1.484375 -0.734375q0.546875 -0.734375 0.546875 -2.34375q0 -1.375 -0.546875 -2.125q-0.53125 -0.765625 -1.515625 -0.765625q-0.953125 0 -1.484375 0.75q-0.53125 0.75 -0.53125 2.328125zm10.751923 -5.03125l0.078125 1.140625q1.0625 -1.3125 2.828125 -1.3125q1.578125 0 2.34375 0.921875q0.765625 0.90625 0.78125 2.734375l0 6.375l-2.640625 0l0 -6.296875q0 -0.84375 -0.359375 -1.21875q-0.359375 -0.375 -1.21875 -0.375q-1.109375 0 -1.65625 0.9375l0 6.953125l-2.640625 0l0 -9.859375l2.484375 0zm7.6361084 4.859375q0 -2.265625 1.078125 -3.640625q1.078125 -1.390625 2.921875 -1.390625q1.609375 0 2.515625 1.109375l0.109375 -0.9375l2.390625 0l0 9.53125q0 1.296875 -0.59375 2.25q-0.578125 0.953125 -1.65625 1.453125q-1.0625 0.5 -2.484375 0.5q-1.09375 0 -2.125 -0.4375q-1.015625 -0.421875 -1.546875 -1.109375l1.15625 -1.59375q0.984375 1.09375 2.390625 1.09375q1.046875 0 1.625 -0.5625q0.59375 -0.5625 0.59375 -1.578125l0 -0.53125q-0.921875 1.03125 -2.40625 1.03125q-1.765625 0 -2.875 -1.390625q-1.09375 -1.390625 -1.09375 -3.6875l0 -0.109375zm2.640625 0.1875q0 1.34375 0.53125 2.109375q0.546875 0.75 1.484375 0.75q1.203125 0 1.71875 -0.890625l0 -4.15625q-0.53125 -0.890625 -1.703125 -0.890625q-0.953125 0 -1.5 0.78125q-0.53125 0.765625 -0.53125 2.296875zm7.977112 -0.203125q0 -1.46875 0.5625 -2.609375q0.578125 -1.15625 1.640625 -1.78125q1.0625 -0.625 2.453125 -0.625q2.0 0 3.265625 1.21875q1.265625 1.21875 1.40625 3.3125l0.015625 0.671875q0 2.265625 -1.265625 3.640625q-1.265625 1.375 -3.40625 1.375q-2.125 0 -3.40625 -1.359375q-1.265625 -1.375 -1.265625 -3.734375l0 -0.109375zm2.640625 0.1875q0 1.40625 0.53125 2.15625q0.53125 0.734375 1.515625 0.734375q0.953125 0 1.484375 -0.734375q0.546875 -0.734375 0.546875 -2.34375q0 -1.375 -0.546875 -2.125q-0.53125 -0.765625 -1.515625 -0.765625q-0.953125 0 -1.484375 0.75q-0.53125 0.75 -0.53125 2.328125zm8.501953 4.828125l0 -13.265625l4.078125 0q1.75 0 3.125 0.796875q1.390625 0.78125 2.15625 2.234375q0.78125 1.453125 0.78125 3.296875l0 0.609375q0 1.859375 -0.765625 3.296875q-0.765625 1.4375 -2.15625 2.234375q-1.375 0.78125 -3.109375 0.796875l-4.109375 0zm2.734375 -11.046875l0 8.84375l1.3125 0q1.609375 0 2.453125 -1.046875q0.84375 -1.046875 0.859375 -2.984375l0 -0.703125q0 -2.03125 -0.84375 -3.0625q-0.828125 -1.046875 -2.4375 -1.046875l-1.34375 0zm9.39032 11.046875l0 -13.265625l4.640625 0q2.421875 0 3.65625 0.921875q1.25 0.921875 1.25 2.71875q0 0.96875 -0.5 1.71875q-0.5 0.734375 -1.390625 1.078125q1.015625 0.265625 1.609375 1.046875q0.59375 0.765625 0.59375 1.875q0 1.921875 -1.234375 2.90625q-1.21875 0.984375 -3.46875 1.0l-5.15625 0zm2.734375 -5.78125l0 3.578125l2.34375 0q0.953125 0 1.5 -0.453125q0.546875 -0.453125 0.546875 -1.265625q0 -1.828125 -1.890625 -1.859375l-2.5 0zm0 -1.921875l2.015625 0q2.0625 -0.046875 2.0625 -1.65625q0 -0.890625 -0.53125 -1.28125q-0.515625 -0.40625 -1.640625 -0.40625l-1.90625 0l0 3.34375z"/><path fill="#2e3b59" fill-rule="evenodd" d="m254.71654 510.6496l0 0c0 7.977722 25.86876 14.444885 57.779526 14.444885c31.910767 0 57.77954 -6.467163 57.77954 -14.444885l0 124.811035c0 7.977661 -25.868774 14.444885 -57.77954 14.444885c-31.910767 0 -57.779526 -6.467224 -57.779526 -14.444885z"/><path fill="#81899b" fill-rule="evenodd" d="m254.71654 510.6496l0 0c0 -7.9776917 25.86876 -14.444885 57.779526 -14.444885c31.910767 0 57.77954 6.4671936 57.77954 14.444885l0 0c0 7.977722 -25.868774 14.444885 -57.77954 14.444885c-31.910767 0 -57.779526 -6.467163 -57.779526 -14.444885z"/><path fill="#000" fill-opacity="0" fill-rule="evenodd" d="m370.2756 510.6496l0 0c0 7.977722 -25.868774 14.444885 -57.77954 14.444885c-31.910767 0 -57.779526 -6.467163 -57.779526 -14.444885l0 0c0 -7.9776917 25.86876 -14.444885 57.779526 -14.444885c31.910767 0 57.77954 6.4671936 57.77954 14.444885l0 124.811035c0 7.977661 -25.868774 14.444885 -57.77954 14.444885c-31.910767 0 -57.779526 -6.467224 -57.779526 -14.444885l0 -124.811035"/><path fill-rule="evenodd" stroke="#70cad1" stroke-linecap="butt" stroke-linejoin="round" stroke-width="1" d="m370.2756 510.6496l0 0c0 7.977722 -25.868774 14.444885 -57.77954 14.444885c-31.910767 0 -57.779526 -6.467163 -57.779526 -14.444885l0 0c0 -7.9776917 25.86876 -14.444885 57.779526 -14.444885c31.910767 0 57.77954 6.4671936 57.77954 14.444885l0 124.811035c0 7.977661 -25.868774 14.444885 -57.77954 14.444885c-31.910767 0 -57.779526 -6.467224 -57.779526 -14.444885l0 -124.811035"/><path fill="#fff" fill-rule="nonzero" d="m298.77222 575.36945l-4.265625 0l0 11.828125l-1.734375 0l0 -11.828125l-4.25 0l0 -1.4375l10.25 0l0 1.4375zm9.909149 9.5l1.890625 -7.53125l1.6875 0l-2.859375 9.859375l-1.375 0l-2.390625 -7.46875l-2.328125 7.46875l-1.375 0l-2.859375 -9.859375l1.671875 0l1.953125 7.375l2.28125 -7.375l1.359375 0l2.34375 7.53125zm7.1288757 2.328125l-1.6875 0l0 -9.859375l1.6875 0l0 9.859375zm-1.828125 -12.46875q0 -0.40625 0.25 -0.6875q0.25 -0.296875 0.734375 -0.296875q0.5 0 0.75 0.296875q0.265625 0.28125 0.265625 0.6875q0 0.40625 -0.265625 0.6875q-0.25 0.265625 -0.75 0.265625q-0.484375 0 -0.734375 -0.265625q-0.25 -0.28125 -0.25 -0.6875zm6.3555603 12.46875l-1.6875 0l0 -14.0l1.6875 0l0 14.0zm4.527405 0l-1.6875 0l0 -9.859375l1.6875 0l0 9.859375zm-1.828125 -12.46875q0 -0.40625 0.25 -0.6875q0.25 -0.296875 0.734375 -0.296875q0.5 0 0.75 0.296875q0.265625 0.28125 0.265625 0.6875q0 0.40625 -0.265625 0.6875q-0.25 0.265625 -0.75 0.265625q-0.484375 0 -0.734375 -0.265625q-0.25 -0.28125 -0.25 -0.6875zm4.0743103 7.453125q0 -1.453125 0.5625 -2.609375q0.578125 -1.15625 1.59375 -1.78125q1.015625 -0.625 2.3125 -0.625q2.015625 0 3.25 1.390625q1.25 1.390625 1.25 3.703125l0 0.125q0 1.4375 -0.546875 2.578125q-0.546875 1.140625 -1.578125 1.78125q-1.015625 0.640625 -2.359375 0.640625q-2.0 0 -3.25 -1.390625q-1.234375 -1.40625 -1.234375 -3.703125l0 -0.109375zm1.6875 0.203125q0 1.640625 0.765625 2.640625q0.765625 0.984375 2.03125 0.984375q1.296875 0 2.046875 -1.0q0.75 -1.015625 0.75 -2.828125q0 -1.625 -0.765625 -2.625q-0.765625 -1.015625 -2.046875 -1.015625q-1.25 0 -2.015625 1.0q-0.765625 0.984375 -0.765625 2.84375z"/><path fill="#2e3b59" fill-rule="evenodd" d="m70.24147 514.3189l0 0c0 7.977661 25.868774 14.444885 57.779526 14.444885c31.910751 0 57.779526 -6.467224 57.779526 -14.444885l0 124.811035c0 7.977661 -25.868774 14.444885 -57.779526 14.444885c-31.910751 0 -57.779526 -6.467224 -57.779526 -14.444885z"/><path fill="#81899b" fill-rule="evenodd" d="m70.24147 514.3189l0 0c0 -7.9776917 25.868774 -14.444885 57.779526 -14.444885c31.910751 0 57.779526 6.4671936 57.779526 14.444885l0 0c0 7.977661 -25.868774 14.444885 -57.779526 14.444885c-31.910751 0 -57.779526 -6.467224 -57.779526 -14.444885z"/><path fill="#000" fill-opacity="0" fill-rule="evenodd" d="m185.80052 514.3189l0 0c0 7.977661 -25.868774 14.444885 -57.779526 14.444885c-31.910751 0 -57.779526 -6.467224 -57.779526 -14.444885l0 0c0 -7.9776917 25.868774 -14.444885 57.779526 -14.444885c31.910751 0 57.779526 6.4671936 57.779526 14.444885l0 124.811035c0 7.977661 -25.868774 14.444885 -57.779526 14.444885c-31.910751 0 -57.779526 -6.467224 -57.779526 -14.444885l0 -124.811035"/><path fill-rule="evenodd" stroke="#70cad1" stroke-linecap="butt" stroke-linejoin="round" stroke-width="1" d="m185.80052 514.3189l0 0c0 7.977661 -25.868774 14.444885 -57.779526 14.444885c-31.910751 0 -57.779526 -6.467224 -57.779526 -14.444885l0 0c0 -7.9776917 25.868774 -14.444885 57.779526 -14.444885c31.910751 0 57.779526 6.4671936 57.779526 14.444885l0 124.811035c0 7.977661 -25.868774 14.444885 -57.779526 14.444885c-31.910751 0 -57.779526 -6.467224 -57.779526 -14.444885l0 -124.811035"/><path fill="#fff" fill-rule="nonzero" d="m109.916336 578.13245q-0.671875 0.953125 -1.875 1.4375q-1.203125 0.484375 -2.8125 0.484375q-1.625 0 -2.890625 -0.765625q-1.25 -0.765625 -1.9375 -2.15625q-0.6875 -1.40625 -0.703125 -3.265625l0 -1.15625q0 -2.984375 1.390625 -4.640625q1.40625 -1.65625 3.9375 -1.65625q2.078125 0 3.34375 1.0625q1.265625 1.0625 1.546875 3.015625l-1.75 0q-0.484375 -2.625 -3.125 -2.625q-1.765625 0 -2.671875 1.234375q-0.90625 1.234375 -0.90625 3.5625l0 1.09375q0 2.234375 1.015625 3.546875q1.015625 1.3125 2.765625 1.3125q0.984375 0 1.71875 -0.21875q0.734375 -0.21875 1.21875 -0.734375l0 -2.984375l-3.078125 0l0 -1.421875l4.8125 0l0 4.875zm2.2077484 -3.28125q0 -1.453125 0.5625 -2.609375q0.578125 -1.15625 1.59375 -1.78125q1.015625 -0.625 2.3125 -0.625q2.015625 0 3.25 1.390625q1.25 1.390625 1.25 3.703125l0 0.125q0 1.4375 -0.546875 2.578125q-0.546875 1.140625 -1.578125 1.78125q-1.015625 0.640625 -2.359375 0.640625q-2.0 0 -3.25 -1.390625q-1.234375 -1.40625 -1.234375 -3.703125l0 -0.109375zm1.6875 0.203125q0 1.640625 0.765625 2.640625q0.765625 0.984375 2.03125 0.984375q1.296875 0 2.046875 -1.0q0.75 -1.015625 0.75 -2.828125q0 -1.625 -0.765625 -2.625q-0.765625 -1.015625 -2.046875 -1.015625q-1.25 0 -2.015625 1.0q-0.765625 0.984375 -0.765625 2.84375zm8.952393 -0.203125q0 -1.453125 0.5625 -2.609375q0.578125 -1.15625 1.59375 -1.78125q1.015625 -0.625 2.3125 -0.625q2.015625 0 3.25 1.390625q1.25 1.390625 1.25 3.703125l0 0.125q0 1.4375 -0.546875 2.578125q-0.546875 1.140625 -1.578125 1.78125q-1.015625 0.640625 -2.359375 0.640625q-2.0 0 -3.25 -1.390625q-1.234375 -1.40625 -1.234375 -3.703125l0 -0.109375zm1.6875 0.203125q0 1.640625 0.765625 2.640625q0.765625 0.984375 2.03125 0.984375q1.296875 0 2.046875 -1.0q0.75 -1.015625 0.75 -2.828125q0 -1.625 -0.765625 -2.625q-0.765625 -1.015625 -2.046875 -1.015625q-1.25 0 -2.015625 1.0q-0.765625 0.984375 -0.765625 2.84375zm8.999268 -0.203125q0 -2.296875 1.0625 -3.65625q1.0625 -1.359375 2.828125 -1.359375q1.796875 0 2.8125 1.265625l0.078125 -1.09375l1.546875 0l0 9.625q0 1.90625 -1.140625 3.0q-1.125 1.109375 -3.046875 1.109375q-1.0625 0 -2.09375 -0.453125q-1.015625 -0.453125 -1.546875 -1.25l0.875 -1.0q1.078125 1.328125 2.65625 1.328125q1.21875 0 1.90625 -0.6875q0.6875 -0.6875 0.6875 -1.953125l0 -0.84375q-1.0 1.171875 -2.75 1.171875q-1.734375 0 -2.8125 -1.390625q-1.0625 -1.40625 -1.0625 -3.8125zm1.6875 0.203125q0 1.65625 0.6875 2.609375q0.6875 0.953125 1.921875 0.953125q1.59375 0 2.328125 -1.453125l0 -4.5q-0.765625 -1.40625 -2.3125 -1.40625q-1.234375 0 -1.9375 0.953125q-0.6875 0.953125 -0.6875 2.84375zm11.013687 4.8125l-1.6875 0l0 -14.0l1.6875 0l0 14.0zm6.77742 0.1875q-2.0 0 -3.265625 -1.3125q-1.25 -1.328125 -1.25 -3.53125l0 -0.3125q0 -1.46875 0.5625 -2.609375q0.5625 -1.15625 1.5625 -1.796875q1.015625 -0.65625 2.1875 -0.65625q1.921875 0 2.984375 1.265625q1.0625 1.265625 1.0625 3.625l0 0.6875l-6.671875 0q0.03125 1.46875 0.84375 2.375q0.828125 0.890625 2.078125 0.890625q0.890625 0 1.515625 -0.359375q0.625 -0.375 1.078125 -0.96875l1.03125 0.796875q-1.234375 1.90625 -3.71875 1.90625zm-0.203125 -8.84375q-1.015625 0 -1.71875 0.75q-0.6875 0.734375 -0.84375 2.078125l4.9375 0l0 -0.125q-0.078125 -1.28125 -0.703125 -1.984375q-0.609375 -0.71875 -1.671875 -0.71875z"/><path fill="#fff" fill-rule="nonzero" d="m102.32876 597.66376q-0.25 2.09375 -1.5625 3.25q-1.296875 1.140625 -3.46875 1.140625q-2.34375 0 -3.765625 -1.6875q-1.421875 -1.6875 -1.421875 -4.515625l0 -1.265625q0 -1.859375 0.65625 -3.25q0.671875 -1.40625 1.875 -2.15625q1.21875 -0.765625 2.8125 -0.765625q2.109375 0 3.390625 1.1875q1.28125 1.171875 1.484375 3.265625l-1.765625 0q-0.21875 -1.578125 -0.984375 -2.28125q-0.765625 -0.71875 -2.125 -0.71875q-1.671875 0 -2.625 1.234375q-0.953125 1.234375 -0.953125 3.53125l0 1.28125q0 2.15625 0.890625 3.4375q0.90625 1.265625 2.53125 1.265625q1.453125 0 2.234375 -0.65625q0.78125 -0.65625 1.03125 -2.296875l1.765625 0zm8.20546 4.203125q-0.140625 -0.296875 -0.234375 -1.03125q-1.171875 1.21875 -2.8125 1.21875q-1.453125 0 -2.390625 -0.828125q-0.921875 -0.828125 -0.921875 -2.09375q0 -1.53125 1.15625 -2.375q1.171875 -0.859375 3.296875 -0.859375l1.640625 0l0 -0.78125q0 -0.890625 -0.53125 -1.40625q-0.515625 -0.53125 -1.546875 -0.53125q-0.90625 0 -1.515625 0.46875q-0.609375 0.453125 -0.609375 1.09375l-1.703125 0q0 -0.734375 0.515625 -1.421875q0.53125 -0.6875 1.421875 -1.078125q0.90625 -0.40625 1.984375 -0.40625q1.703125 0 2.671875 0.859375q0.96875 0.84375 1.0 2.328125l0 4.53125q0 1.359375 0.34375 2.171875l0 0.140625l-1.765625 0zm-2.796875 -1.28125q0.796875 0 1.5 -0.40625q0.71875 -0.421875 1.03125 -1.078125l0 -2.015625l-1.3125 0q-3.109375 0 -3.109375 1.8125q0 0.796875 0.53125 1.25q0.53125 0.4375 1.359375 0.4375zm8.694855 1.28125l-1.6875 0l0 -14.0l1.6875 0l0 14.0zm6.77742 0.1875q-2.0 0 -3.265625 -1.3125q-1.25 -1.328125 -1.25 -3.53125l0 -0.3125q0 -1.46875 0.5625 -2.609375q0.5625 -1.15625 1.5625 -1.796875q1.015625 -0.65625 2.1875 -0.65625q1.921875 0 2.984375 1.265625q1.0625 1.265625 1.0625 3.625l0 0.6875l-6.671875 0q0.03125 1.46875 0.84375 2.375q0.828125 0.890625 2.078125 0.890625q0.890625 0 1.515625 -0.359375q0.625 -0.375 1.078125 -0.96875l1.03125 0.796875q-1.234375 1.90625 -3.71875 1.90625zm-0.203125 -8.84375q-1.015625 0 -1.71875 0.75q-0.6875 0.734375 -0.84375 2.078125l4.9375 0l0 -0.125q-0.078125 -1.28125 -0.703125 -1.984375q-0.609375 -0.71875 -1.671875 -0.71875zm7.6025467 -1.203125l0.046875 1.234375q1.125 -1.40625 2.953125 -1.40625q3.125 0 3.15625 3.515625l0 6.515625l-1.6875 0l0 -6.515625q-0.015625 -1.078125 -0.5 -1.578125q-0.46875 -0.515625 -1.484375 -0.515625q-0.8125 0 -1.4375 0.4375q-0.609375 0.4375 -0.96875 1.15625l0 7.015625l-1.671875 0l0 -9.859375l1.59375 0zm8.278107 4.84375q0 -2.265625 1.078125 -3.640625q1.078125 -1.375 2.8125 -1.375q1.734375 0 2.75 1.171875l0 -5.140625l1.6875 0l0 14.0l-1.546875 0l-0.09375 -1.0625q-1.0 1.25 -2.8125 1.25q-1.703125 0 -2.796875 -1.40625q-1.078125 -1.40625 -1.078125 -3.65625l0 -0.140625zm1.6875 0.203125q0 1.671875 0.6875 2.625q0.703125 0.9375 1.921875 0.9375q1.609375 0 2.34375 -1.4375l0 -4.53125q-0.765625 -1.390625 -2.328125 -1.390625q-1.234375 0 -1.9375 0.953125q-0.6875 0.953125 -0.6875 2.84375zm15.333969 4.8125q-0.140625 -0.296875 -0.234375 -1.03125q-1.171875 1.21875 -2.8125 1.21875q-1.453125 0 -2.390625 -0.828125q-0.921875 -0.828125 -0.921875 -2.09375q0 -1.53125 1.15625 -2.375q1.171875 -0.859375 3.296875 -0.859375l1.640625 0l0 -0.78125q0 -0.890625 -0.53125 -1.40625q-0.515625 -0.53125 -1.546875 -0.53125q-0.90625 0 -1.515625 0.46875q-0.609375 0.453125 -0.609375 1.09375l-1.703125 0q0 -0.734375 0.515625 -1.421875q0.53125 -0.6875 1.421875 -1.078125q0.90625 -0.40625 1.984375 -0.40625q1.703125 0 2.671875 0.859375q0.96875 0.84375 1.0 2.328125l0 4.53125q0 1.359375 0.34375 2.171875l0 0.140625l-1.765625 0zm-2.796875 -1.28125q0.796875 0 1.5 -0.40625q0.71875 -0.421875 1.03125 -1.078125l0 -2.015625l-1.3125 0q-3.109375 0 -3.109375 1.8125q0 0.796875 0.53125 1.25q0.53125 0.4375 1.359375 0.4375zm11.632355 -7.0625q-0.390625 -0.0625 -0.84375 -0.0625q-1.65625 0 -2.25 1.40625l0 7.0l-1.671875 0l0 -9.859375l1.640625 0l0.015625 1.140625q0.828125 -1.3125 2.359375 -1.3125q0.484375 0 0.75 0.125l0 1.5625z"/><path fill="#2e3b59" fill-rule="evenodd" d="m629.5092 510.6496l0 0c0 7.977722 25.868774 14.444885 57.77948 14.444885c31.910767 0 57.77954 -6.467163 57.77954 -14.444885l0 124.811035c0 7.977661 -25.868774 14.444885 -57.77954 14.444885c-31.910706 0 -57.77948 -6.467224 -57.77948 -14.444885z"/><path fill="#81899b" fill-rule="evenodd" d="m629.5092 510.6496l0 0c0 -7.9776917 25.868774 -14.444885 57.77948 -14.444885c31.910767 0 57.77954 6.4671936 57.77954 14.444885l0 0c0 7.977722 -25.868774 14.444885 -57.77954 14.444885c-31.910706 0 -57.77948 -6.467163 -57.77948 -14.444885z"/><path fill="#000" fill-opacity="0" fill-rule="evenodd" d="m745.06824 510.6496l0 0c0 7.977722 -25.868774 14.444885 -57.77954 14.444885c-31.910706 0 -57.77948 -6.467163 -57.77948 -14.444885l0 0c0 -7.9776917 25.868774 -14.444885 57.77948 -14.444885c31.910767 0 57.77954 6.4671936 57.77954 14.444885l0 124.811035c0 7.977661 -25.868774 14.444885 -57.77954 14.444885c-31.910706 0 -57.77948 -6.467224 -57.77948 -14.444885l0 -124.811035"/><path fill-rule="evenodd" stroke="#70cad1" stroke-linecap="butt" stroke-linejoin="round" stroke-width="1" d="m745.06824 510.6496l0 0c0 7.977722 -25.868774 14.444885 -57.77954 14.444885c-31.910706 0 -57.77948 -6.467163 -57.77948 -14.444885l0 0c0 -7.9776917 25.868774 -14.444885 57.77948 -14.444885c31.910767 0 57.77954 6.4671936 57.77954 14.444885l0 124.811035c0 7.977661 -25.868774 14.444885 -57.77954 14.444885c-31.910706 0 -57.77948 -6.467224 -57.77948 -14.444885l0 -124.811035"/><path fill="#fff" fill-rule="nonzero" d="m657.1118 587.1976l0 -13.265625l3.734375 0q1.734375 0 3.0625 0.765625q1.328125 0.765625 2.046875 2.1875q0.734375 1.40625 0.734375 3.234375l0 0.84375q0 1.875 -0.71875 3.296875q-0.71875 1.40625 -2.0625 2.171875q-1.34375 0.75 -3.140625 0.765625l-3.65625 0zm1.734375 -11.828125l0 10.390625l1.84375 0q2.03125 0 3.15625 -1.25q1.125 -1.25 1.125 -3.578125l0 -0.78125q0 -2.25 -1.0625 -3.5q-1.0625 -1.265625 -3.015625 -1.28125l-2.046875 0zm12.062195 11.828125l-1.6875 0l0 -9.859375l1.6875 0l0 9.859375zm-1.828125 -12.46875q0 -0.40625 0.25 -0.6875q0.25 -0.296875 0.734375 -0.296875q0.5 0 0.75 0.296875q0.265625 0.28125 0.265625 0.6875q0 0.40625 -0.265625 0.6875q-0.25 0.265625 -0.75 0.265625q-0.484375 0 -0.734375 -0.265625q-0.25 -0.28125 -0.25 -0.6875zm10.26178 9.859375q0 -0.6875 -0.515625 -1.0625q-0.515625 -0.375 -1.796875 -0.640625q-1.28125 -0.28125 -2.03125 -0.65625q-0.75 -0.390625 -1.109375 -0.921875q-0.359375 -0.53125 -0.359375 -1.265625q0 -1.203125 1.015625 -2.03125q1.03125 -0.84375 2.625 -0.84375q1.671875 0 2.71875 0.859375q1.046875 0.859375 1.046875 2.21875l-1.6875 0q0 -0.703125 -0.59375 -1.203125q-0.59375 -0.5 -1.484375 -0.5q-0.921875 0 -1.4375 0.40625q-0.515625 0.390625 -0.515625 1.046875q0 0.609375 0.484375 0.921875q0.484375 0.3125 1.734375 0.59375q1.265625 0.28125 2.046875 0.671875q0.78125 0.390625 1.15625 0.9375q0.390625 0.546875 0.390625 1.34375q0 1.328125 -1.0625 2.125q-1.046875 0.796875 -2.734375 0.796875q-1.1875 0 -2.109375 -0.421875q-0.90625 -0.421875 -1.421875 -1.171875q-0.515625 -0.75 -0.515625 -1.625l1.6875 0q0.046875 0.84375 0.671875 1.34375q0.640625 0.5 1.6875 0.5q0.953125 0 1.53125 -0.390625q0.578125 -0.390625 0.578125 -1.03125zm7.838379 1.421875q0.890625 0 1.5625 -0.546875q0.6875 -0.546875 0.75 -1.375l1.59375 0q-0.046875 0.84375 -0.578125 1.609375q-0.53125 0.765625 -1.4375 1.234375q-0.890625 0.453125 -1.890625 0.453125q-2.015625 0 -3.203125 -1.34375q-1.1875 -1.34375 -1.1875 -3.6875l0 -0.28125q0 -1.4375 0.515625 -2.546875q0.53125 -1.125 1.515625 -1.734375q1.0 -0.625 2.34375 -0.625q1.65625 0 2.75 1.0q1.109375 0.984375 1.171875 2.5625l-1.59375 0q-0.0625 -0.953125 -0.71875 -1.5625q-0.65625 -0.625 -1.609375 -0.625q-1.28125 0 -2.0 0.921875q-0.703125 0.921875 -0.703125 2.671875l0 0.328125q0 1.703125 0.703125 2.625q0.703125 0.921875 2.015625 0.921875zm5.359131 -3.828125q0 -1.453125 0.5625 -2.609375q0.578125 -1.15625 1.59375 -1.78125q1.015625 -0.625 2.3125 -0.625q2.015625 0 3.25 1.390625q1.25 1.390625 1.25 3.703125l0 0.125q0 1.4375 -0.546875 2.578125q-0.546875 1.140625 -1.578125 1.78125q-1.015625 0.640625 -2.359375 0.640625q-2.0 0 -3.25 -1.390625q-1.234375 -1.40625 -1.234375 -3.703125l0 -0.109375zm1.6875 0.203125q0 1.640625 0.765625 2.640625q0.765625 0.984375 2.03125 0.984375q1.296875 0 2.046875 -1.0q0.75 -1.015625 0.75 -2.828125q0 -1.625 -0.765625 -2.625q-0.765625 -1.015625 -2.046875 -1.015625q-1.25 0 -2.015625 1.0q-0.765625 0.984375 -0.765625 2.84375zm14.171143 -3.53125q-0.390625 -0.0625 -0.84375 -0.0625q-1.65625 0 -2.25 1.40625l0 7.0l-1.671875 0l0 -9.859375l1.640625 0l0.015625 1.140625q0.828125 -1.3125 2.359375 -1.3125q0.484375 0 0.75 0.125l0 1.5625zm0.9522095 3.328125q0 -2.265625 1.078125 -3.640625q1.078125 -1.375 2.8125 -1.375q1.734375 0 2.75 1.171875l0 -5.140625l1.6875 0l0 14.0l-1.546875 0l-0.09375 -1.0625q-1.0 1.25 -2.8125 1.25q-1.703125 0 -2.796875 -1.40625q-1.078125 -1.40625 -1.078125 -3.65625l0 -0.140625zm1.6875 0.203125q0 1.671875 0.6875 2.625q0.703125 0.9375 1.921875 0.9375q1.609375 0 2.34375 -1.4375l0 -4.53125q-0.765625 -1.390625 -2.328125 -1.390625q-1.234375 0 -1.9375 0.953125q-0.6875 0.953125 -0.6875 2.84375z"/><path fill="#2e3b59" fill-rule="evenodd" d="m804.18634 510.6496l0 0c0 7.977722 25.868774 14.444885 57.77954 14.444885c31.910767 0 57.77954 -6.467163 57.77954 -14.444885l0 124.811035c0 7.977661 -25.868774 14.444885 -57.77954 14.444885c-31.910767 0 -57.77954 -6.467224 -57.77954 -14.444885z"/><path fill="#81899b" fill-rule="evenodd" d="m804.18634 510.6496l0 0c0 -7.9776917 25.868774 -14.444885 57.77954 -14.444885c31.910767 0 57.77954 6.4671936 57.77954 14.444885l0 0c0 7.977722 -25.868774 14.444885 -57.77954 14.444885c-31.910767 0 -57.77954 -6.467163 -57.77954 -14.444885z"/><path fill="#000" fill-opacity="0" fill-rule="evenodd" d="m919.7454 510.6496l0 0c0 7.977722 -25.868774 14.444885 -57.77954 14.444885c-31.910767 0 -57.77954 -6.467163 -57.77954 -14.444885l0 0c0 -7.9776917 25.868774 -14.444885 57.77954 -14.444885c31.910767 0 57.77954 6.4671936 57.77954 14.444885l0 124.811035c0 7.977661 -25.868774 14.444885 -57.77954 14.444885c-31.910767 0 -57.77954 -6.467224 -57.77954 -14.444885l0 -124.811035"/><path fill-rule="evenodd" stroke="#70cad1" stroke-linecap="butt" stroke-linejoin="round" stroke-width="1" d="m919.7454 510.6496l0 0c0 7.977722 -25.868774 14.444885 -57.77954 14.444885c-31.910767 0 -57.77954 -6.467163 -57.77954 -14.444885l0 0c0 -7.9776917 25.868774 -14.444885 57.77954 -14.444885c31.910767 0 57.77954 6.4671936 57.77954 14.444885l0 124.811035c0 7.977661 -25.868774 14.444885 -57.77954 14.444885c-31.910767 0 -57.77954 -6.467224 -57.77954 -14.444885l0 -124.811035"/><path fill="#fff" fill-rule="nonzero" d="m829.50073 581.2913q-2.25 -0.65625 -3.28125 -1.59375q-1.03125 -0.9375 -1.03125 -2.328125q0 -1.5625 1.25 -2.59375q1.265625 -1.03125 3.265625 -1.03125q1.359375 0 2.4375 0.53125q1.078125 0.53125 1.65625 1.46875q0.59375 0.921875 0.59375 2.03125l-1.765625 0q0 -1.203125 -0.765625 -1.890625q-0.765625 -0.6875 -2.15625 -0.6875q-1.296875 0 -2.015625 0.5625q-0.71875 0.5625 -0.71875 1.578125q0 0.8125 0.6875 1.375q0.6875 0.5625 2.328125 1.03125q1.65625 0.453125 2.59375 1.015625q0.9375 0.5625 1.375 1.3125q0.453125 0.75 0.453125 1.75q0 1.609375 -1.25 2.59375q-1.25 0.96875 -3.359375 0.96875q-1.375 0 -2.5625 -0.515625q-1.171875 -0.53125 -1.8125 -1.4375q-0.640625 -0.921875 -0.640625 -2.078125l1.75 0q0 1.203125 0.890625 1.90625q0.890625 0.6875 2.375 0.6875q1.375 0 2.109375 -0.5625q0.75 -0.5625 0.75 -1.53125q0 -0.984375 -0.6875 -1.515625q-0.6875 -0.53125 -2.46875 -1.046875zm10.974304 6.09375q-2.0 0 -3.265625 -1.3125q-1.25 -1.328125 -1.25 -3.53125l0 -0.3125q0 -1.46875 0.5625 -2.609375q0.5625 -1.15625 1.5625 -1.796875q1.015625 -0.65625 2.1875 -0.65625q1.921875 0 2.984375 1.265625q1.0625 1.265625 1.0625 3.625l0 0.6875l-6.671875 0q0.03125 1.46875 0.84375 2.375q0.828125 0.890625 2.078125 0.890625q0.890625 0 1.515625 -0.359375q0.625 -0.375 1.078125 -0.96875l1.03125 0.796875q-1.234375 1.90625 -3.71875 1.90625zm-0.203125 -8.84375q-1.015625 0 -1.71875 0.75q-0.6875 0.734375 -0.84375 2.078125l4.9375 0l0 -0.125q-0.078125 -1.28125 -0.703125 -1.984375q-0.609375 -0.71875 -1.671875 -0.71875zm7.602539 -1.203125l0.046875 1.234375q1.125 -1.40625 2.953125 -1.40625q3.125 0 3.15625 3.515625l0 6.515625l-1.6875 0l0 -6.515625q-0.015625 -1.078125 -0.5 -1.578125q-0.46875 -0.515625 -1.484375 -0.515625q-0.8125 0 -1.4375 0.4375q-0.609375 0.4375 -0.96875 1.15625l0 7.015625l-1.671875 0l0 -9.859375l1.59375 0zm8.278076 4.84375q0 -2.265625 1.078125 -3.640625q1.078125 -1.375 2.8125 -1.375q1.734375 0 2.75 1.171875l0 -5.140625l1.6875 0l0 14.0l-1.546875 0l-0.09375 -1.0625q-1.0 1.25 -2.8125 1.25q-1.703125 0 -2.796875 -1.40625q-1.078125 -1.40625 -1.078125 -3.65625l0 -0.140625zm1.6875 0.203125q0 1.671875 0.6875 2.625q0.703125 0.9375 1.921875 0.9375q1.609375 0 2.34375 -1.4375l0 -4.53125q-0.765625 -1.390625 -2.328125 -1.390625q-1.234375 0 -1.9375 0.953125q-0.6875 0.953125 -0.6875 2.84375zm19.302734 3.078125q-0.671875 0.953125 -1.875 1.4375q-1.203125 0.484375 -2.8125 0.484375q-1.625 0 -2.890625 -0.765625q-1.25 -0.765625 -1.9375 -2.15625q-0.6875 -1.40625 -0.703125 -3.265625l0 -1.15625q0 -2.984375 1.390625 -4.640625q1.40625 -1.65625 3.9375 -1.65625q2.078125 0 3.34375 1.0625q1.265625 1.0625 1.546875 3.015625l-1.75 0q-0.484375 -2.625 -3.125 -2.625q-1.765625 0 -2.671875 1.234375q-0.90625 1.234375 -0.90625 3.5625l0 1.09375q0 2.234375 1.015625 3.546875q1.015625 1.3125 2.765625 1.3125q0.984375 0 1.71875 -0.21875q0.734375 -0.21875 1.21875 -0.734375l0 -2.984375l-3.078125 0l0 -1.421875l4.8125 0l0 4.875zm7.4265137 -6.609375q-0.390625 -0.0625 -0.84375 -0.0625q-1.65625 0 -2.25 1.40625l0 7.0l-1.671875 0l0 -9.859375l1.640625 0l0.015625 1.140625q0.828125 -1.3125 2.359375 -1.3125q0.484375 0 0.75 0.125l0 1.5625zm3.3753662 8.34375l-1.6875 0l0 -9.859375l1.6875 0l0 9.859375zm-1.828125 -12.46875q0 -0.40625 0.25 -0.6875q0.25 -0.296875 0.734375 -0.296875q0.5 0 0.75 0.296875q0.265625 0.28125 0.265625 0.6875q0 0.40625 -0.265625 0.6875q-0.25 0.265625 -0.75 0.265625q-0.484375 0 -0.734375 -0.265625q-0.25 -0.28125 -0.25 -0.6875zm4.10553 7.453125q0 -2.265625 1.078125 -3.640625q1.078125 -1.375 2.8125 -1.375q1.734375 0 2.75 1.171875l0 -5.140625l1.6875 0l0 14.0l-1.546875 0l-0.09375 -1.0625q-1.0 1.25 -2.8125 1.25q-1.703125 0 -2.796875 -1.40625q-1.078125 -1.40625 -1.078125 -3.65625l0 -0.140625zm1.6875 0.203125q0 1.671875 0.6875 2.625q0.703125 0.9375 1.921875 0.9375q1.609375 0 2.34375 -1.4375l0 -4.53125q-0.765625 -1.390625 -2.328125 -1.390625q-1.234375 0 -1.9375 0.953125q-0.6875 0.953125 -0.6875 2.84375z"/><path fill="#000" fill-opacity="0" fill-rule="evenodd" d="m498.22833 479.95276l0 -59.905518"/><path fill-rule="evenodd" stroke="#70cad1" stroke-linecap="butt" stroke-linejoin="round" stroke-width="3" d="m498.22833 461.95276l0 -23.905518"/><path fill="#70cad1" fill-rule="evenodd" stroke="#70cad1" stroke-linecap="butt" stroke-width="3" d="m493.27316 461.95276l4.9551697 13.614288l4.9552 -13.614288z"/><path fill="#70cad1" fill-rule="evenodd" stroke="#70cad1" stroke-linecap="butt" stroke-width="3" d="m503.18353 438.04724l-4.9552 -13.614288l-4.9551697 13.614288z"/><path fill="#000" fill-opacity="0" fill-rule="evenodd" d="m312.49606 496.2047l185.73227 -76.15747"/><path fill-rule="evenodd" stroke="#70cad1" stroke-linecap="butt" stroke-linejoin="round" stroke-width="3" d="m329.15036 489.37582l152.42368 -62.499664"/><path fill="#70cad1" fill-rule="evenodd" stroke="#70cad1" stroke-linecap="butt" stroke-width="3" d="m327.27045 484.79108l-10.716553 9.749786l14.47641 -0.58032227z"/><path fill="#70cad1" fill-rule="evenodd" stroke="#70cad1" stroke-linecap="butt" stroke-width="3" d="m483.45398 431.4609l10.716553 -9.749786l-14.47641 0.58029175z"/><path fill="#000" fill-opacity="0" fill-rule="evenodd" d="m128.021 499.87402l370.2047 -79.811035"/><path fill-rule="evenodd" stroke="#70cad1" stroke-linecap="butt" stroke-linejoin="round" stroke-width="3" d="m145.61673 496.08063l335.01324 -72.22424"/><path fill="#70cad1" fill-rule="evenodd" stroke="#70cad1" stroke-linecap="butt" stroke-width="3" d="m144.57246 491.2367l-12.264252 7.713043l14.352798 1.9747925z"/><path fill="#70cad1" fill-rule="evenodd" stroke="#70cad1" stroke-linecap="butt" stroke-width="3" d="m481.67426 428.7003l12.264252 -7.713043l-14.352814 -1.974762z"/><path fill="#000" fill-opacity="0" fill-rule="evenodd" d="m687.2887 496.2047l-189.07086 -76.15747"/><path fill-rule="evenodd" stroke="#70cad1" stroke-linecap="butt" stroke-linejoin="round" stroke-width="3" d="m670.5923 489.4794l-155.67804 -62.70685"/><path fill="#70cad1" fill-rule="evenodd" stroke="#70cad1" stroke-linecap="butt" stroke-width="3" d="m668.7409 494.07578l14.479736 0.49032593l-10.776978 -9.683014z"/><path fill="#70cad1" fill-rule="evenodd" stroke="#70cad1" stroke-linecap="butt" stroke-width="3" d="m516.7657 422.1762l-14.479736 -0.49035645l10.7769165 9.683014z"/><path fill="#000" fill-opacity="0" fill-rule="evenodd" d="m861.9659 496.2047l-363.74805 -76.15747"/><path fill-rule="evenodd" stroke="#70cad1" stroke-linecap="butt" stroke-linejoin="round" stroke-width="3" d="m844.34784 492.51608l-328.51202 -68.78018"/><path fill="#70cad1" fill-rule="evenodd" stroke="#70cad1" stroke-linecap="butt" stroke-width="3" d="m843.33246 497.3661l14.340759 -2.0601196l-12.3098755 -7.6399536z"/><path fill="#70cad1" fill-rule="evenodd" stroke="#70cad1" stroke-linecap="butt" stroke-width="3" d="m516.8513 418.88586l-14.340851 2.0601196l12.309906 7.6399536z"/><path fill="#70cad1" fill-rule="evenodd" d="m353.88715 132.07611l91.71652 0l0 57.795273l-91.71652 0z"/><path fill-rule="evenodd" stroke="#000" stroke-linecap="butt" stroke-linejoin="round" stroke-width="1" d="m353.88715 132.07611l91.71652 0l0 57.795273l-91.71652 0z"/><path fill="#fff" fill-rule="nonzero" d="m384.0802 167.89375l-5.171875 -13.359375l1.921875 0l3.46875 9.703125q0.421875 1.171875 0.703125 2.1875q0.3125 -1.09375 0.71875 -2.1875l3.609375 -9.703125l1.796875 0l-5.234375 13.359375l-1.8125 0zm14.0633545 0l0 -1.421875q-1.125 1.640625 -3.0625 1.640625q-0.859375 0 -1.609375 -0.328125q-0.734375 -0.328125 -1.09375 -0.828125q-0.359375 -0.5 -0.5 -1.21875q-0.109375 -0.46875 -0.109375 -1.53125l0 -5.984375l1.640625 0l0 5.359375q0 1.28125 0.109375 1.734375q0.15625 0.640625 0.65625 1.015625q0.5 0.375 1.234375 0.375q0.734375 0 1.375 -0.375q0.65625 -0.390625 0.921875 -1.03125q0.265625 -0.65625 0.265625 -1.890625l0 -5.1875l1.640625 0l0 9.671875l-1.46875 0zm10.672607 -3.109375l1.6875 0.203125q-0.40625 1.484375 -1.484375 2.3125q-1.078125 0.8125 -2.765625 0.8125q-2.125 0 -3.375 -1.296875q-1.234375 -1.3125 -1.234375 -3.671875q0 -2.453125 1.25 -3.796875q1.265625 -1.34375 3.265625 -1.34375q1.9375 0 3.15625 1.328125q1.234375 1.3125 1.234375 3.703125q0 0.15625 0 0.4375l-7.21875 0q0.09375 1.59375 0.90625 2.453125q0.8125 0.84375 2.015625 0.84375q0.90625 0 1.546875 -0.46875q0.640625 -0.484375 1.015625 -1.515625zm-5.390625 -2.65625l5.40625 0q-0.109375 -1.21875 -0.625 -1.828125q-0.78125 -0.953125 -2.03125 -0.953125q-1.125 0 -1.90625 0.765625q-0.765625 0.75 -0.84375 2.015625zm8.047577 5.765625l3.53125 -5.03125l-3.265625 -4.640625l2.046875 0l1.484375 2.265625q0.421875 0.640625 0.671875 1.078125q0.40625 -0.59375 0.734375 -1.0625l1.640625 -2.28125l1.953125 0l-3.34375 4.546875l3.59375 5.125l-2.015625 0l-1.984375 -3.0l-0.515625 -0.8125l-2.546875 3.8125l-1.984375 0z"/><path fill="#70cad1" fill-rule="evenodd" d="m546.90027 132.07611l119.90552 0l0 57.795273l-119.90552 0z"/><path fill-rule="evenodd" stroke="#000" stroke-linecap="butt" stroke-linejoin="round" stroke-width="1" d="m546.90027 132.07611l119.90552 0l0 57.795273l-119.90552 0z"/><path fill="#fff" fill-rule="nonzero" d="m565.26215 167.89375l-5.171875 -13.359375l1.921875 0l3.46875 9.703125q0.421875 1.171875 0.703125 2.1875q0.3125 -1.09375 0.71875 -2.1875l3.609375 -9.703125l1.796875 0l-5.234375 13.359375l-1.8125 0zm14.063416 0l0 -1.421875q-1.125 1.640625 -3.0625 1.640625q-0.859375 0 -1.609375 -0.328125q-0.734375 -0.328125 -1.09375 -0.828125q-0.359375 -0.5 -0.5 -1.21875q-0.109375 -0.46875 -0.109375 -1.53125l0 -5.984375l1.640625 0l0 5.359375q0 1.28125 0.109375 1.734375q0.15625 0.640625 0.65625 1.015625q0.5 0.375 1.234375 0.375q0.734375 0 1.375 -0.375q0.65625 -0.390625 0.921875 -1.03125q0.265625 -0.65625 0.265625 -1.890625l0 -5.1875l1.640625 0l0 9.671875l-1.46875 0zm10.672546 -3.109375l1.6875 0.203125q-0.40625 1.484375 -1.484375 2.3125q-1.078125 0.8125 -2.765625 0.8125q-2.125 0 -3.375 -1.296875q-1.234375 -1.3125 -1.234375 -3.671875q0 -2.453125 1.25 -3.796875q1.265625 -1.34375 3.265625 -1.34375q1.9375 0 3.15625 1.328125q1.234375 1.3125 1.234375 3.703125q0 0.15625 0 0.4375l-7.21875 0q0.09375 1.59375 0.90625 2.453125q0.8125 0.84375 2.015625 0.84375q0.90625 0 1.546875 -0.46875q0.640625 -0.484375 1.015625 -1.515625zm-5.390625 -2.65625l5.40625 0q-0.109375 -1.21875 -0.625 -1.828125q-0.78125 -0.953125 -2.03125 -0.953125q-1.125 0 -1.90625 0.765625q-0.765625 0.75 -0.84375 2.015625zm14.559021 5.765625l0 -13.359375l5.921875 0q1.78125 0 2.703125 0.359375q0.9375 0.359375 1.484375 1.28125q0.5625 0.90625 0.5625 2.015625q0 1.40625 -0.921875 2.390625q-0.921875 0.96875 -2.84375 1.234375q0.703125 0.34375 1.078125 0.671875q0.765625 0.703125 1.453125 1.765625l2.328125 3.640625l-2.21875 0l-1.765625 -2.78125q-0.78125 -1.203125 -1.28125 -1.828125q-0.5 -0.640625 -0.90625 -0.890625q-0.390625 -0.265625 -0.796875 -0.359375q-0.296875 -0.078125 -0.984375 -0.078125l-2.046875 0l0 5.9375l-1.765625 0zm1.765625 -7.453125l3.796875 0q1.21875 0 1.890625 -0.25q0.6875 -0.265625 1.046875 -0.8125q0.359375 -0.546875 0.359375 -1.1875q0 -0.953125 -0.6875 -1.5625q-0.6875 -0.609375 -2.1875 -0.609375l-4.21875 0l0 4.421875zm10.863586 2.609375q0 -2.6875 1.484375 -3.96875q1.25 -1.078125 3.046875 -1.078125q2.0 0 3.265625 1.3125q1.265625 1.296875 1.265625 3.609375q0 1.859375 -0.5625 2.9375q-0.5625 1.0625 -1.640625 1.65625q-1.0625 0.59375 -2.328125 0.59375q-2.03125 0 -3.28125 -1.296875q-1.25 -1.3125 -1.25 -3.765625zm1.6875 0q0 1.859375 0.796875 2.796875q0.8125 0.921875 2.046875 0.921875q1.21875 0 2.03125 -0.921875q0.8125 -0.9375 0.8125 -2.84375q0 -1.796875 -0.8125 -2.71875q-0.8125 -0.921875 -2.03125 -0.921875q-1.234375 0 -2.046875 0.921875q-0.796875 0.90625 -0.796875 2.765625zm15.625732 4.84375l0 -1.421875q-1.125 1.640625 -3.0625 1.640625q-0.859375 0 -1.609375 -0.328125q-0.734375 -0.328125 -1.09375 -0.828125q-0.359375 -0.5 -0.5 -1.21875q-0.109375 -0.46875 -0.109375 -1.53125l0 -5.984375l1.640625 0l0 5.359375q0 1.28125 0.109375 1.734375q0.15625 0.640625 0.65625 1.015625q0.5 0.375 1.234375 0.375q0.734375 0 1.375 -0.375q0.65625 -0.390625 0.921875 -1.03125q0.265625 -0.65625 0.265625 -1.890625l0 -5.1875l1.640625 0l0 9.671875l-1.46875 0zm7.6257324 -1.46875l0.234375 1.453125q-0.6875 0.140625 -1.234375 0.140625q-0.890625 0 -1.390625 -0.28125q-0.484375 -0.28125 -0.6875 -0.734375q-0.203125 -0.46875 -0.203125 -1.9375l0 -5.578125l-1.203125 0l0 -1.265625l1.203125 0l0 -2.390625l1.625 -0.984375l0 3.375l1.65625 0l0 1.265625l-1.65625 0l0 5.671875q0 0.6875 0.078125 0.890625q0.09375 0.203125 0.28125 0.328125q0.203125 0.109375 0.578125 0.109375q0.265625 0 0.71875 -0.0625zm8.230164 -1.640625l1.6875 0.203125q-0.40625 1.484375 -1.484375 2.3125q-1.078125 0.8125 -2.765625 0.8125q-2.125 0 -3.375 -1.296875q-1.234375 -1.3125 -1.234375 -3.671875q0 -2.453125 1.25 -3.796875q1.265625 -1.34375 3.265625 -1.34375q1.9375 0 3.15625 1.328125q1.234375 1.3125 1.234375 3.703125q0 0.15625 0 0.4375l-7.21875 0q0.09375 1.59375 0.90625 2.453125q0.8125 0.84375 2.015625 0.84375q0.90625 0 1.546875 -0.46875q0.640625 -0.484375 1.015625 -1.515625zm-5.390625 -2.65625l5.40625 0q-0.109375 -1.21875 -0.625 -1.828125q-0.78125 -0.953125 -2.03125 -0.953125q-1.125 0 -1.90625 0.765625q-0.765625 0.75 -0.84375 2.015625zm9.125732 5.765625l0 -9.671875l1.46875 0l0 1.46875q0.5625 -1.03125 1.03125 -1.359375q0.484375 -0.328125 1.0625 -0.328125q0.828125 0 1.6875 0.53125l-0.5625 1.515625q-0.609375 -0.359375 -1.203125 -0.359375q-0.546875 0 -0.96875 0.328125q-0.421875 0.328125 -0.609375 0.890625q-0.28125 0.875 -0.28125 1.921875l0 5.0625l-1.625 0z"/><path fill="#000" fill-opacity="0" fill-rule="evenodd" d="m498.23358 208.19948l0 92.85039"/><path fill-rule="evenodd" stroke="#70cad1" stroke-linecap="butt" stroke-linejoin="round" stroke-width="3" d="m498.23358 226.19948l0 56.850388"/><path fill="#70cad1" fill-rule="evenodd" stroke="#70cad1" stroke-linecap="butt" stroke-width="3" d="m503.18878 226.19948l-4.9552 -13.614304l-4.9551697 13.614304z"/><path fill="#70cad1" fill-rule="evenodd" stroke="#70cad1" stroke-linecap="butt" stroke-width="3" d="m493.2784 283.04987l4.9551697 13.614288l4.9552 -13.614288z"/><path fill="#000" fill-opacity="0" fill-rule="evenodd" d="m571.4147 210.95538c0 22.70079 0.01574707 34.051178 0.03149414 45.40158c0.01574707 11.350372 0.03149414 22.700775 0.03149414 45.40158"/><path fill-rule="evenodd" stroke="#70cad1" stroke-dasharray="12 9" stroke-linecap="butt" stroke-linejoin="round" stroke-width="3" d="m571.4147 210.95538c0 22.70079 0.01574707 34.051178 0.03149414 45.40158c0.01574707 11.350372 0.03149414 22.700775 0.03149414 45.40158"/><path fill="#000" fill-opacity="0" fill-rule="evenodd" d="m433.8294 217.37534l54.4252 0l0 41.259827l-54.4252 0z"/><path fill="#2e3b59" fill-rule="nonzero" d="m451.59503 241.20158l-5.125 0l-1.078125 3.09375l-2.40625 0l5.015625 -13.265625l2.0625 0l5.03125 13.265625l-2.40625 0l-1.09375 -3.09375zm-4.484375 -1.859375l3.84375 0l-1.921875 -5.5l-1.921875 5.5zm11.791229 0.03125l0 4.921875l-2.3125 0l0 -13.265625l5.078125 0q2.21875 0 3.53125 1.15625q1.3125 1.15625 1.3125 3.0625q0 1.953125 -1.28125 3.046875q-1.28125 1.078125 -3.59375 1.078125l-2.734375 0zm0 -1.859375l2.765625 0q1.234375 0 1.875 -0.578125q0.65625 -0.578125 0.65625 -1.671875q0 -1.078125 -0.65625 -1.71875q-0.65625 -0.640625 -1.8125 -0.65625l-2.828125 0l0 4.625zm12.049347 6.78125l-2.296875 0l0 -13.265625l2.296875 0l0 13.265625z"/><path fill="#000" fill-opacity="0" fill-rule="evenodd" d="m579.6352 212.44357l97.25983 0l0 41.259842l-97.25983 0z"/><path fill="#2e3b59" fill-rule="nonzero" d="m596.91644 235.9417q0 -0.875 -0.625 -1.34375q-0.609375 -0.46875 -2.21875 -0.953125q-1.59375 -0.484375 -2.546875 -1.078125q-1.8125 -1.140625 -1.8125 -2.96875q0 -1.609375 1.3125 -2.640625q1.3125 -1.046875 3.390625 -1.046875q1.390625 0 2.46875 0.515625q1.09375 0.515625 1.703125 1.453125q0.625 0.9375 0.625 2.09375l-2.296875 0q0 -1.046875 -0.65625 -1.625q-0.640625 -0.59375 -1.859375 -0.59375q-1.125 0 -1.75 0.484375q-0.625 0.484375 -0.625 1.34375q0 0.734375 0.671875 1.21875q0.671875 0.484375 2.21875 0.953125q1.546875 0.453125 2.484375 1.046875q0.9375 0.59375 1.375 1.359375q0.4375 0.75 0.4375 1.765625q0 1.65625 -1.265625 2.640625q-1.265625 0.984375 -3.453125 0.984375q-1.4375 0 -2.640625 -0.53125q-1.203125 -0.546875 -1.875 -1.484375q-0.671875 -0.9375 -0.671875 -2.1875l2.3125 0q0 1.140625 0.734375 1.765625q0.75 0.609375 2.140625 0.609375q1.203125 0 1.8125 -0.484375q0.609375 -0.484375 0.609375 -1.296875zm3.6968384 -1.59375q0 -1.453125 0.578125 -2.609375q0.578125 -1.171875 1.609375 -1.78125q1.03125 -0.625 2.390625 -0.625q1.984375 0 3.234375 1.28125q1.25 1.28125 1.34375 3.40625l0.015625 0.515625q0 1.453125 -0.5625 2.609375q-0.5625 1.140625 -1.609375 1.78125q-1.046875 0.625 -2.40625 0.625q-2.09375 0 -3.34375 -1.390625q-1.25 -1.390625 -1.25 -3.703125l0 -0.109375zm2.21875 0.1875q0 1.515625 0.625 2.390625q0.625 0.859375 1.75 0.859375q1.125 0 1.734375 -0.875q0.625 -0.875 0.625 -2.5625q0 -1.5 -0.640625 -2.375q-0.640625 -0.875 -1.734375 -0.875q-1.09375 0 -1.734375 0.859375q-0.625 0.859375 -0.625 2.578125zm12.871643 3.25q0.828125 0 1.375 -0.484375q0.546875 -0.484375 0.578125 -1.203125l2.09375 0q-0.046875 0.921875 -0.59375 1.71875q-0.53125 0.796875 -1.453125 1.265625q-0.90625 0.46875 -1.984375 0.46875q-2.0625 0 -3.28125 -1.34375q-1.203125 -1.34375 -1.203125 -3.703125l0 -0.21875q0 -2.25 1.203125 -3.59375q1.203125 -1.359375 3.28125 -1.359375q1.75 0 2.859375 1.03125q1.109375 1.015625 1.171875 2.671875l-2.09375 0q-0.03125 -0.84375 -0.578125 -1.390625q-0.546875 -0.546875 -1.375 -0.546875q-1.078125 0 -1.671875 0.78125q-0.578125 0.78125 -0.578125 2.359375l0 0.359375q0 1.609375 0.578125 2.40625q0.578125 0.78125 1.671875 0.78125zm8.921631 -2.65625l-0.984375 1.015625l0 3.21875l-2.21875 0l0 -14.0l2.21875 0l0 8.078125l0.6875 -0.859375l2.71875 -3.078125l2.65625 0l-3.65625 4.109375l4.046875 5.75l-2.546875 0l-2.921875 -4.234375zm10.680786 4.421875q-2.09375 0 -3.40625 -1.328125q-1.3125 -1.328125 -1.3125 -3.53125l0 -0.28125q0 -1.46875 0.5625 -2.625q0.578125 -1.171875 1.609375 -1.8125q1.03125 -0.640625 2.296875 -0.640625q2.015625 0 3.109375 1.28125q1.09375 1.28125 1.09375 3.625l0 0.890625l-6.4375 0q0.109375 1.234375 0.8125 1.953125q0.71875 0.703125 1.8125 0.703125q1.515625 0 2.46875 -1.234375l1.203125 1.140625q-0.59375 0.875 -1.59375 1.375q-0.984375 0.484375 -2.21875 0.484375zm-0.265625 -8.453125q-0.90625 0 -1.46875 0.640625q-0.5625 0.640625 -0.703125 1.78125l4.203125 0l0 -0.171875q-0.0625 -1.109375 -0.59375 -1.671875q-0.515625 -0.578125 -1.4375 -0.578125zm8.7144165 -3.984375l0 2.390625l1.734375 0l0 1.640625l-1.734375 0l0 5.5q0 0.5625 0.21875 0.8125q0.234375 0.25 0.796875 0.25q0.390625 0 0.78125 -0.078125l0 1.703125q-0.75 0.21875 -1.453125 0.21875q-2.5625 0 -2.5625 -2.8125l0 -5.59375l-1.609375 0l0 -1.640625l1.609375 0l0 -2.390625l2.21875 0zm4.8129883 9.921875q0.625 0 0.953125 0.359375q0.34375 0.34375 0.34375 0.859375q0 0.53125 -0.34375 0.875q-0.328125 0.328125 -0.953125 0.328125q-0.59375 0 -0.9375 -0.328125q-0.34375 -0.34375 -0.34375 -0.859375q0 -0.53125 0.328125 -0.875q0.34375 -0.359375 0.953125 -0.359375zm6.1793823 2.328125l-2.203125 0l0 -9.859375l2.203125 0l0 9.859375zm-2.34375 -12.421875q0 -0.5 0.3125 -0.828125q0.328125 -0.34375 0.921875 -0.34375q0.609375 0 0.9375 0.34375q0.328125 0.328125 0.328125 0.828125q0 0.5 -0.328125 0.84375q-0.328125 0.328125 -0.9375 0.328125q-0.59375 0 -0.921875 -0.328125q-0.3125 -0.34375 -0.3125 -0.84375zm4.342346 7.40625q0 -1.453125 0.578125 -2.609375q0.578125 -1.171875 1.609375 -1.78125q1.03125 -0.625 2.390625 -0.625q1.984375 0 3.234375 1.28125q1.25 1.28125 1.34375 3.40625l0.015625 0.515625q0 1.453125 -0.5625 2.609375q-0.5625 1.140625 -1.609375 1.78125q-1.046875 0.625 -2.40625 0.625q-2.09375 0 -3.34375 -1.390625q-1.25 -1.390625 -1.25 -3.703125l0 -0.109375zm2.21875 0.1875q0 1.515625 0.625 2.390625q0.625 0.859375 1.75 0.859375q1.125 0 1.734375 -0.875q0.625 -0.875 0.625 -2.5625q0 -1.5 -0.640625 -2.375q-0.640625 -0.875 -1.734375 -0.875q-1.09375 0 -1.734375 0.859375q-0.625 0.859375 -0.625 2.578125z"/><path fill="#000" fill-opacity="0" fill-rule="evenodd" d="m417.063 576.7244c-11.696808 0 -17.543213 -0.9133911 -23.393616 -1.8267822c-5.850403 -0.9133911 -11.704773 -1.8267822 -23.409515 -1.8267822"/><path fill-rule="evenodd" stroke="#70cad1" stroke-linecap="butt" stroke-linejoin="round" stroke-width="3" d="m399.09247 575.6942l-0.9445801 -0.12579346c-1.5535583 -0.21411133 -3.0159302 -0.44244385 -4.4785156 -0.67077637c-1.4625854 -0.22833252 -2.9254456 -0.45672607 -4.479889 -0.67077637l-0.9590454 -0.12768555"/><path fill="#70cad1" fill-rule="evenodd" stroke="#70cad1" stroke-linecap="butt" stroke-width="3" d="m398.8089 580.6413l13.87558 -4.1679077l-13.30838 -5.7262573z"/><path fill="#70cad1" fill-rule="evenodd" stroke="#70cad1" stroke-linecap="butt" stroke-width="3" d="m388.51355 569.1521l-13.875153 4.1693115l13.30896 5.7249146z"/><path fill="#000" fill-opacity="0" fill-rule="evenodd" d="m498.22833 673.49603c0 12.480286 -92.55118 27.44873 -185.10236 24.960571c-92.55118 -2.4882202 -185.10236 -22.433044 -185.10236 -44.866028"/><path fill-rule="evenodd" stroke="#70cad1" stroke-linecap="butt" stroke-linejoin="round" stroke-width="3" d="m482.84753 682.8465l-0.5264282 0.16467285c-10.122772 3.1194458 -24.583893 6.0827637 -41.937256 8.578308c-34.706696 4.99115 -80.98227 8.111206 -127.25787 6.8671265c-46.275574 -1.2440796 -92.55118 -6.852356 -127.25787 -14.953674c-17.353333 -4.05072 -31.814468 -8.72467 -41.93724 -13.788025c-1.2653503 -0.6329346 -2.462906 -1.2719116 -3.5898743 -1.916565l-0.7358093 -0.42852783"/><path fill="#70cad1" fill-rule="evenodd" stroke="#70cad1" stroke-linecap="butt" stroke-width="3" d="m485.4216 687.0806l9.059204 -11.306335l-14.207336 2.8380127z"/><path fill="#70cad1" fill-rule="evenodd" stroke="#70cad1" stroke-linecap="butt" stroke-width="3" d="m143.39844 664.1815l-12.552963 -7.2336426l4.9664154 13.610168z"/><path fill="#000" fill-opacity="0" fill-rule="evenodd" d="m579.3937 576.7244c12.528809 0 18.793884 -0.9133911 25.057617 -1.8267822c6.263794 -0.9133911 12.526367 -1.8267822 25.052673 -1.8267822"/><path fill-rule="evenodd" stroke="#70cad1" stroke-linecap="butt" stroke-linejoin="round" stroke-width="3" d="m597.3721 575.8428l1.0155029 -0.11669922c0.42974854 -0.051513672 0.8518677 -0.10412598 1.2678223 -0.15765381c1.6639404 -0.21411133 3.2299805 -0.44244385 4.7958984 -0.67077637c1.565979 -0.22833252 3.131836 -0.45672607 4.795532 -0.67077637c0.41589355 -0.053527832 0.83795166 -0.10614014 1.2676392 -0.15765381l1.0111084 -0.11621094"/><path fill="#70cad1" fill-rule="evenodd" stroke="#70cad1" stroke-linecap="butt" stroke-width="3" d="m597.1294 570.8935l-13.355225 5.616089l13.840637 4.2824097z"/><path fill="#70cad1" fill-rule="evenodd" stroke="#70cad1" stroke-linecap="butt" stroke-width="3" d="m611.76843 578.9022l13.3550415 -5.616394l-13.840759 -4.2820435z"/><path fill="#000" fill-opacity="0" fill-rule="evenodd" d="m498.22833 673.49603c0 12.500061 90.93701 27.948914 181.87402 25.000122c90.93701 -2.9488525 181.87402 -24.29535 181.87402 -48.590637"/><path fill-rule="evenodd" stroke="#70cad1" stroke-linecap="butt" stroke-linejoin="round" stroke-width="3" d="m513.52527 682.9831l0.33288574 0.10736084c9.946228 3.1600952 24.155151 6.1709595 41.20581 8.698975c34.10138 5.0561523 79.569885 8.181152 125.03839 6.706726c45.468506 -1.4744263 90.93701 -7.548218 125.03839 -16.290405c17.05072 -4.3710327 31.259583 -9.40918 41.20587 -14.873047c1.2432861 -0.6829834 2.4199219 -1.3726196 3.5272217 -2.0684204c0.27685547 -0.1739502 0.5493164 -0.3482666 0.81744385 -0.52301025c0.1340332 -0.08734131 0.26696777 -0.17480469 0.39886475 -0.2623291l0.16790771 -0.11254883"/><path fill="#70cad1" fill-rule="evenodd" stroke="#70cad1" stroke-linecap="butt" stroke-width="3" d="m516.13696 678.77203l-14.181519 -2.9644775l8.95816 11.386597z"/><path fill="#70cad1" fill-rule="evenodd" stroke="#70cad1" stroke-linecap="butt" stroke-width="3" d="m855.23895 667.317l4.1259155 -13.888123l-12.087769 7.9868164z"/></g></svg>